<svg width="200" height="47" viewBox="0 0 200 47" fill="none" xmlns="http://www.w3.org/2000/svg">
<path d="M53.0312 34.6033V14.1021H55.1963L66.6591 30.0158V14.1021H69.1299V34.6033H66.918L55.5021 18.6745V34.6033H53.0312Z" fill="white"/>
<path d="M100.508 29.7406V33.0474C99.4889 33.6728 98.4488 34.148 97.3916 34.4732C96.3346 34.7985 95.286 34.9635 94.2501 34.9635C93.2524 34.9635 92.3014 34.8084 91.3972 34.5032C90.4929 34.193 89.6396 33.7379 88.8329 33.1325C87.5423 32.137 86.536 30.8613 85.8186 29.3154C85.1012 27.7645 84.7402 26.0836 84.7402 24.2627C84.7402 22.8869 84.9779 21.5512 85.4493 20.2555C85.9205 18.9648 86.5955 17.8292 87.4659 16.8636C88.3956 15.8281 89.4357 15.0527 90.5863 14.5423C91.741 14.0271 93.0188 13.772 94.4199 13.772C95.4005 13.772 96.3685 13.902 97.3323 14.1672C98.2917 14.4323 99.3022 14.8475 100.355 15.4178V18.6046C99.2513 17.8992 98.2154 17.3789 97.243 17.0387C96.2751 16.7035 95.3326 16.5334 94.4199 16.5334C92.3864 16.5334 90.7094 17.2788 89.3805 18.7696C88.0517 20.2604 87.3894 22.1265 87.3894 24.3727C87.3894 26.594 88.0432 28.445 89.3509 29.9358C90.6584 31.4266 92.2971 32.172 94.2713 32.172C95.286 32.172 96.3091 31.9719 97.345 31.5717C98.3851 31.1715 99.438 30.5611 100.508 29.7406Z" fill="white"/>
<path d="M103.255 14.1021H105.726V25.8685C105.726 27.1791 105.785 28.1097 105.904 28.655C106.027 29.2004 106.227 29.6756 106.511 30.0758C107.025 30.7911 107.632 31.3214 108.337 31.6766C109.041 32.0268 109.844 32.2019 110.74 32.2019C112.247 32.2019 113.461 31.7417 114.382 30.8262C115.303 29.9057 115.762 28.695 115.762 27.1892V14.1021H118.233V27.2792C118.233 29.5604 117.541 31.4115 116.157 32.8323C114.773 34.2531 112.968 34.9635 110.74 34.9635C109.419 34.9635 108.231 34.6883 107.169 34.1381C106.108 33.5827 105.216 32.7772 104.486 31.7117C104.036 31.0763 103.722 30.3709 103.535 29.5905C103.348 28.81 103.255 27.6095 103.255 25.9885V14.1021Z" fill="white"/>
<path d="M124.346 25.5683V31.9319H127.657C128.867 31.9319 129.75 31.6817 130.306 31.1764C130.867 30.6711 131.147 29.8857 131.147 28.8101C131.147 27.6945 130.833 26.874 130.209 26.3537C129.585 25.8285 128.6 25.5683 127.258 25.5683H124.346ZM121.875 34.6033V14.1021H126.97C128.706 14.1021 130.043 14.5674 130.982 15.4929C131.924 16.4233 132.395 17.7391 132.395 19.45C132.395 20.5056 132.183 21.3861 131.763 22.0864C131.338 22.7918 130.693 23.3322 129.823 23.7123C131.088 24.0675 132.068 24.7079 132.76 25.6334C133.452 26.5638 133.796 27.6895 133.796 29.0203C133.796 30.7211 133.27 32.0769 132.213 33.0874C131.156 34.098 129.725 34.6033 127.916 34.6033H121.875ZM124.346 22.8969H126.027C127.296 22.8969 128.239 22.6268 128.85 22.0915C129.466 21.5561 129.772 20.7357 129.772 19.6301C129.772 18.6246 129.53 17.8891 129.046 17.4339C128.557 16.9736 127.785 16.7435 126.723 16.7435H124.346V22.8969Z" fill="white"/>
<path d="M139.944 25.9286H145.365L142.618 18.5444L139.944 25.9286ZM134.208 34.6033L141.748 14.1021H143.561L151.198 34.6033H148.626L146.384 28.57H138.971L136.759 34.6033H134.208Z" fill="white"/>
<path d="M155.355 34.6033V16.7736H148.961V14.1021H164.219V16.7736H157.825V34.6033H155.355Z" fill="white"/>
<path d="M167.96 24.3727C167.96 25.4182 168.125 26.4189 168.456 27.3643C168.788 28.3099 169.267 29.1504 169.887 29.8857C170.494 30.6161 171.203 31.1815 172.023 31.5767C172.838 31.9719 173.691 32.172 174.578 32.172C175.487 32.172 176.344 31.9769 177.147 31.5916C177.945 31.2064 178.663 30.6361 179.291 29.8857C179.911 29.1504 180.39 28.3099 180.726 27.3643C181.061 26.4189 181.231 25.4182 181.231 24.3727C181.231 23.3272 181.065 22.3416 180.734 21.406C180.403 20.4756 179.911 19.6201 179.265 18.8497C178.646 18.0943 177.932 17.5239 177.126 17.1287C176.323 16.7335 175.474 16.5334 174.578 16.5334C173.712 16.5334 172.88 16.7335 172.069 17.1337C171.263 17.5339 170.532 18.1043 169.887 18.8497C169.267 19.5601 168.788 20.3955 168.456 21.3561C168.125 22.3116 167.96 23.3171 167.96 24.3727ZM165.311 24.2627C165.311 22.897 165.548 21.5662 166.02 20.2805C166.491 18.9897 167.166 17.8491 168.036 16.8636C168.923 15.858 169.925 15.0927 171.046 14.5624C172.163 14.0371 173.343 13.772 174.578 13.772C175.835 13.772 177.032 14.0371 178.166 14.5723C179.295 15.1026 180.293 15.8681 181.155 16.8636C182.059 17.8992 182.738 19.0548 183.197 20.3205C183.651 21.5912 183.88 22.972 183.88 24.4577C183.88 25.8536 183.647 27.1943 183.175 28.48C182.708 29.7657 182.042 30.8963 181.18 31.8718C180.276 32.8874 179.27 33.6577 178.153 34.1781C177.036 34.7034 175.844 34.9635 174.578 34.9635C173.343 34.9635 172.158 34.6934 171.025 34.1581C169.896 33.6177 168.898 32.8574 168.036 31.8718C167.14 30.8462 166.461 29.6857 166.003 28.4C165.54 27.1092 165.311 25.7284 165.311 24.2627Z" fill="white"/>
<path d="M186.627 34.6033V14.1021H191.722C193.479 14.1021 194.838 14.5923 195.793 15.5679C196.748 16.5434 197.224 17.9291 197.224 19.7152C197.224 21.0659 196.96 22.1514 196.438 22.9719C195.912 23.7923 195.088 24.4077 193.955 24.8179C194.248 25.0031 194.519 25.2481 194.778 25.5583C195.037 25.8635 195.368 26.3788 195.776 27.1042L200 34.6033H196.99L194.006 29.2253C193.11 27.6045 192.388 26.5689 191.836 26.1236C191.288 25.6735 190.63 25.4483 189.871 25.4483H189.123V34.6033H186.627ZM189.123 22.987H191.187C192.346 22.987 193.212 22.7218 193.789 22.1964C194.362 21.6663 194.651 20.8608 194.651 19.7751C194.651 18.6596 194.379 17.8541 193.831 17.3488C193.284 16.8436 192.401 16.5935 191.187 16.5935H189.123V22.987Z" fill="white"/>
<path d="M48.7889 11.2989C50.2714 11.2989 51.4733 10.0893 51.4733 8.59714C51.4733 7.105 50.2714 5.89539 48.7889 5.89539C47.3063 5.89539 46.1045 7.105 46.1045 8.59714C46.1045 10.0893 47.3063 11.2989 48.7889 11.2989Z" fill="#FF6583"/>
<path d="M50.0279 13.7784H47.5923V34.3024H50.0279V13.7784Z" fill="white"/>
<path d="M0 34.2726V13.814H2.97163V34.2726H0Z" fill="white"/>
<path d="M13.0998 34.2726V16.4799H5.48877V13.814H23.6523V16.4799H16.0412V34.2726H13.0998Z" fill="white"/>
<path d="M27.3226 27.4683C28.8051 27.4683 30.0069 26.2587 30.0069 24.7666C30.0069 23.2744 28.8051 22.0648 27.3226 22.0648C25.84 22.0648 24.6382 23.2744 24.6382 24.7666C24.6382 26.2587 25.84 27.4683 27.3226 27.4683Z" fill="white"/>
<path d="M58.0344 46.5C70.6551 46.5 80.8862 36.2025 80.8862 23.5C80.8862 10.7975 70.6551 0.5 58.0344 0.5C45.4137 0.5 35.1826 10.7975 35.1826 23.5C35.1826 36.2025 45.4137 46.5 58.0344 46.5Z" stroke="white" stroke-miterlimit="22.9256"/>
</svg>
