<svg width="22" height="22" viewBox="0 0 22 22" fill="none" xmlns="http://www.w3.org/2000/svg">
<path d="M20.4286 0H1.57143C1.15479 0.000416017 0.75533 0.16611 0.46072 0.46072C0.16611 0.75533 0.000416017 1.15479 0 1.57143V20.4286C0.000478291 20.8452 0.166193 21.2446 0.460789 21.5392C0.755385 21.8338 1.15481 21.9995 1.57143 22H20.4286C20.8452 21.9994 21.2445 21.8337 21.5391 21.5391C21.8337 21.2445 21.9994 20.8452 22 20.4286V1.57143C21.9995 1.15481 21.8338 0.755385 21.5392 0.460789C21.2446 0.166193 20.8452 0.000478291 20.4286 0ZM20.4286 7.07143H9.42857V1.57143H20.4286V7.07143ZM7.85714 1.57143V7.07143H1.57143V1.57143H7.85714ZM1.57143 20.4286V8.64286H20.4291L20.4301 20.4286H1.57143Z" fill="white"/>
</svg>
