<svg width="266" height="200" viewBox="0 0 266 200" fill="none" xmlns="http://www.w3.org/2000/svg">
<g clip-path="url(#clip0_163_2061)">
<path d="M228.579 17.5589C228.198 17.3748 227.812 17.2003 227.431 17.0225C216.407 11.9173 204.591 7.76983 192.228 4.66587L189.361 33.3023H171.188V0.485631C170.044 0.314232 168.891 0.152355 167.738 0V33.3023H146.141C134.252 33.3023 122.849 29.8823 114.442 23.7946C106.035 17.707 101.312 9.45038 101.312 0.841161C100.155 1.02208 99.0067 1.21567 97.8583 1.42198V33.3023H80.2678L77.537 5.99581C64.8316 9.52419 52.7697 14.1642 41.6196 19.8125C41.4268 19.9077 41.2339 20.0061 41.0454 20.1013C40.0767 20.5933 39.1211 21.0948 38.1699 21.6027V130.851H90.012L89.0959 121.662L84.055 71.2101H185.569L180.529 121.662L179.613 130.851H230.88V18.6635C230.118 18.289 229.351 17.9208 228.579 17.5589ZM97.8583 62.8782H83.2222L80.5177 35.8034H97.8583V62.8782ZM167.738 62.8782H143.156V62.3418C143.156 62.0839 143.086 61.8286 142.949 61.5904C142.813 61.3522 142.613 61.1358 142.361 60.9536C142.109 60.7714 141.81 60.627 141.481 60.5286C141.152 60.4302 140.799 60.3798 140.443 60.3802H129.756C129.4 60.3801 129.048 60.4308 128.719 60.5293C128.391 60.6279 128.092 60.7724 127.84 60.9545C127.589 61.1367 127.389 61.353 127.253 61.591C127.117 61.829 127.047 62.0842 127.047 62.3418V62.8782H101.312V35.8034H167.738V62.8782ZM171.188 62.8782V35.8034H189.111L186.407 62.8782H171.188Z" fill="#F2F2F2"/>
<path d="M254.039 184.726L254.318 178.84C257.228 177.381 260.474 176.611 263.774 176.595C259.233 180.077 259.8 186.788 256.721 191.47C255.749 192.923 254.44 194.153 252.892 195.068C251.344 195.982 249.596 196.559 247.778 196.754L243.977 198.936C243.456 196.21 243.571 193.41 244.314 190.73C245.058 188.049 246.412 185.552 248.284 183.41C249.347 182.218 250.566 181.156 251.912 180.25C252.822 182.5 254.039 184.726 254.039 184.726Z" fill="#F2F2F2"/>
<path d="M58.4237 177.831L49.6186 175.127C48.4638 170.367 48.4717 165.394 49.6416 160.638C53.2676 168.537 63.6281 170.346 69.5992 176.609C71.4468 178.578 72.8342 180.942 73.6585 183.528C74.4828 186.114 74.7229 188.855 74.3611 191.548L76.2884 197.872C71.9749 197.556 67.7802 196.295 63.9932 194.176C60.2063 192.058 56.9171 189.131 54.3524 185.598C52.933 183.602 51.767 181.433 50.8819 179.141C54.6164 178.711 58.4237 177.831 58.4237 177.831Z" fill="#F2F2F2"/>
<path d="M246.763 198.246C246.762 198.43 246.689 198.605 246.561 198.736C246.497 198.799 246.422 198.85 246.339 198.884C246.256 198.919 246.168 198.936 246.078 198.936H243.323C243.233 198.936 243.144 198.918 243.061 198.884C242.977 198.849 242.902 198.799 242.838 198.734C242.774 198.67 242.724 198.594 242.69 198.51C242.655 198.427 242.638 198.337 242.638 198.246V114.399C242.638 112.551 242.021 111.05 241.264 111.047H34.8452C34.0846 111.05 33.4714 112.551 33.4679 114.399V197.732C33.4674 197.904 33.4036 198.069 33.2891 198.195C33.1745 198.322 33.0173 198.402 32.8478 198.418C32.2928 198.474 31.7377 198.522 31.1861 198.567C31.1724 198.567 31.1587 198.57 31.145 198.57C30.8435 198.598 30.542 198.618 30.2405 198.643H30.2371C30.0795 198.356 29.9288 198.063 29.7746 197.77C29.7252 197.671 29.6994 197.561 29.6992 197.449V110.05C29.6992 109.54 29.7198 109.026 29.754 108.519C29.8029 107.823 29.8887 107.13 30.011 106.443C30.59 103.24 31.8988 101.07 33.3857 101.064H242.72C242.937 101.065 243.152 101.111 243.351 101.198C243.643 101.328 243.907 101.514 244.128 101.746C244.429 102.061 244.686 102.415 244.892 102.798C245.626 104.098 246.15 106.036 246.335 108.292C246.335 108.312 246.338 108.333 246.338 108.354C246.386 108.912 246.41 109.481 246.407 110.05L246.455 117.441L246.486 121.848L246.578 135.676L246.612 140.587L246.763 198.246Z" fill="#E6E6E6"/>
<path d="M265.415 199.879L170.933 200C170.825 200 170.721 199.95 170.645 199.862C170.569 199.773 170.526 199.654 170.526 199.529C170.526 199.404 170.569 199.284 170.645 199.196C170.721 199.108 170.825 199.058 170.933 199.057L265.415 198.936C265.523 198.936 265.627 198.986 265.703 199.074C265.779 199.163 265.822 199.282 265.822 199.407C265.822 199.532 265.779 199.652 265.703 199.74C265.627 199.828 265.523 199.878 265.415 199.879Z" fill="#CACACA"/>
<path d="M148.429 76.5956H131.208C130.964 76.5959 130.73 76.6914 130.558 76.8611C130.386 77.0307 130.29 77.2606 130.29 77.5002V104.255H149.349V77.5002C149.349 77.3814 149.326 77.2637 149.279 77.1539C149.233 77.0442 149.166 76.9444 149.08 76.8604C148.995 76.7764 148.893 76.7097 148.782 76.6643C148.67 76.6189 148.55 76.5955 148.429 76.5956ZM139.876 91.7974C139.338 91.7949 138.822 91.5834 138.441 91.2089C138.06 90.8344 137.845 90.3271 137.843 89.7974V86.7115C137.843 86.1811 138.057 85.6724 138.438 85.2973C138.82 84.9223 139.337 84.7116 139.876 84.7116C140.416 84.7116 140.933 84.9223 141.314 85.2973C141.696 85.6724 141.91 86.1811 141.91 86.7115V89.7974C141.908 90.3271 141.693 90.8344 141.312 91.2089C140.931 91.5834 140.415 91.7949 139.876 91.7974Z" fill="#2F2E41"/>
<path d="M175.618 35.1063H104.022C103.407 35.1073 102.817 35.3532 102.382 35.7901C101.947 36.227 101.702 36.8193 101.701 37.4372V85.9668C101.702 86.5848 101.946 87.1774 102.381 87.6143C102.817 88.0513 103.406 88.2971 104.022 88.2977H175.618C176.233 88.2971 176.823 88.0513 177.258 87.6143C177.693 87.1774 177.938 86.5848 177.938 85.9668V37.4372C177.937 36.8193 177.693 36.227 177.258 35.7901C176.823 35.3532 176.233 35.1073 175.618 35.1063Z" fill="#3F3D56"/>
<path d="M175.635 37.234H105.063C104.733 37.2347 104.416 37.3643 104.183 37.5943C103.95 37.8243 103.819 38.136 103.819 38.4609V84.9457C103.819 85.2703 103.951 85.5814 104.184 85.8108C104.417 86.0403 104.733 86.1695 105.063 86.1701H175.635C175.965 86.1695 176.281 86.0403 176.514 85.8108C176.748 85.5814 176.879 85.2703 176.879 84.9457V38.4609C176.879 38.136 176.748 37.8243 176.515 37.5943C176.282 37.3643 175.966 37.2347 175.635 37.234Z" fill="white"/>
<path d="M130.29 103.191V105.861C130.29 106 130.344 106.132 130.44 106.23C130.535 106.328 130.665 106.383 130.8 106.383H148.839C148.974 106.383 149.104 106.327 149.199 106.23C149.295 106.132 149.349 106 149.349 105.861V103.191H130.29Z" fill="#3F3D56"/>
<path d="M161.285 107.447H119.413C119.298 107.447 119.185 107.418 119.082 107.361C118.978 107.305 118.887 107.222 118.815 107.12C118.742 107.017 118.691 106.898 118.664 106.77C118.637 106.642 118.635 106.508 118.659 106.379L119.309 102.831C119.346 102.632 119.441 102.454 119.578 102.326C119.715 102.198 119.886 102.128 120.062 102.127H160.635C160.812 102.128 160.983 102.198 161.12 102.326C161.257 102.454 161.352 102.632 161.389 102.831L162.039 106.379C162.062 106.508 162.061 106.642 162.034 106.77C162.007 106.898 161.955 107.017 161.883 107.12C161.811 107.222 161.72 107.305 161.616 107.361C161.513 107.418 161.4 107.447 161.285 107.447Z" fill="#2F2E41"/>
<path d="M121.682 103.191H120.898C120.822 103.191 120.76 103.294 120.76 103.422V104.026C120.76 104.153 120.822 104.256 120.898 104.256H121.682C121.758 104.256 121.819 104.153 121.819 104.026V103.422C121.819 103.294 121.758 103.191 121.682 103.191Z" fill="#3F3D56"/>
<path d="M123.8 103.191H123.015C122.939 103.191 122.878 103.294 122.878 103.422V104.026C122.878 104.153 122.939 104.256 123.015 104.256H123.8C123.876 104.256 123.937 104.153 123.937 104.026V103.422C123.937 103.294 123.876 103.191 123.8 103.191Z" fill="#3F3D56"/>
<path d="M126.976 103.191H126.192C126.116 103.191 126.055 103.294 126.055 103.422V104.026C126.055 104.153 126.116 104.256 126.192 104.256H126.976C127.052 104.256 127.114 104.153 127.114 104.026V103.422C127.114 103.294 127.052 103.191 126.976 103.191Z" fill="#3F3D56"/>
<path d="M129.094 103.191H128.31C128.234 103.191 128.172 103.294 128.172 103.422V104.026C128.172 104.153 128.234 104.256 128.31 104.256H129.094C129.17 104.256 129.232 104.153 129.232 104.026V103.422C129.232 103.294 129.17 103.191 129.094 103.191Z" fill="#3F3D56"/>
<path d="M132.132 103.191H130.565C130.413 103.191 130.29 103.294 130.29 103.421V104.024C130.29 104.151 130.413 104.254 130.565 104.254H132.132C132.284 104.254 132.407 104.151 132.407 104.024V103.421C132.407 103.294 132.284 103.191 132.132 103.191Z" fill="#3F3D56"/>
<path d="M134.388 103.191H133.604C133.528 103.191 133.466 103.294 133.466 103.422V104.026C133.466 104.153 133.528 104.256 133.604 104.256H134.388C134.464 104.256 134.526 104.153 134.526 104.026V103.422C134.526 103.294 134.464 103.191 134.388 103.191Z" fill="#3F3D56"/>
<path d="M137.426 103.191H135.859C135.707 103.191 135.584 103.294 135.584 103.421V104.024C135.584 104.151 135.707 104.254 135.859 104.254H137.426C137.578 104.254 137.701 104.151 137.701 104.024V103.421C137.701 103.294 137.578 103.191 137.426 103.191Z" fill="#3F3D56"/>
<path d="M139.682 103.191H138.898C138.822 103.191 138.761 103.294 138.761 103.421V104.024C138.761 104.151 138.822 104.254 138.898 104.254H139.682C139.758 104.254 139.819 104.151 139.819 104.024V103.421C139.819 103.294 139.758 103.191 139.682 103.191Z" fill="#3F3D56"/>
<path d="M141.8 103.191H141.016C140.94 103.191 140.878 103.294 140.878 103.422V104.026C140.878 104.153 140.94 104.256 141.016 104.256H141.8C141.876 104.256 141.938 104.153 141.938 104.026V103.422C141.938 103.294 141.876 103.191 141.8 103.191Z" fill="#3F3D56"/>
<path d="M144.976 103.191H144.192C144.116 103.191 144.055 103.294 144.055 103.422V104.026C144.055 104.153 144.116 104.256 144.192 104.256H144.976C145.052 104.256 145.114 104.153 145.114 104.026V103.422C145.114 103.294 145.052 103.191 144.976 103.191Z" fill="#3F3D56"/>
<path d="M147.094 103.191H146.31C146.234 103.191 146.172 103.294 146.172 103.422V104.026C146.172 104.153 146.234 104.256 146.31 104.256H147.094C147.17 104.256 147.232 104.153 147.232 104.026V103.422C147.232 103.294 147.17 103.191 147.094 103.191Z" fill="#3F3D56"/>
<path d="M150.132 103.191H148.565C148.414 103.191 148.291 103.294 148.291 103.421V104.024C148.291 104.151 148.414 104.254 148.565 104.254H150.132C150.284 104.254 150.407 104.151 150.407 104.024V103.421C150.407 103.294 150.284 103.191 150.132 103.191Z" fill="#3F3D56"/>
<path d="M152.388 103.191H151.604C151.528 103.191 151.467 103.294 151.467 103.421V104.024C151.467 104.151 151.528 104.254 151.604 104.254H152.388C152.464 104.254 152.525 104.151 152.525 104.024V103.421C152.525 103.294 152.464 103.191 152.388 103.191Z" fill="#3F3D56"/>
<path d="M155.426 103.191H153.859C153.707 103.191 153.584 103.294 153.584 103.421V104.024C153.584 104.151 153.707 104.254 153.859 104.254H155.426C155.578 104.254 155.701 104.151 155.701 104.024V103.421C155.701 103.294 155.578 103.191 155.426 103.191Z" fill="#3F3D56"/>
<path d="M157.682 103.191H156.899C156.823 103.191 156.761 103.294 156.761 103.421V104.024C156.761 104.151 156.823 104.254 156.899 104.254H157.682C157.758 104.254 157.82 104.151 157.82 104.024V103.421C157.82 103.294 157.758 103.191 157.682 103.191Z" fill="#3F3D56"/>
<path d="M159.801 103.191H159.016C158.94 103.191 158.879 103.294 158.879 103.422V104.026C158.879 104.153 158.94 104.256 159.016 104.256H159.801C159.877 104.256 159.938 104.153 159.938 104.026V103.422C159.938 103.294 159.877 103.191 159.801 103.191Z" fill="#3F3D56"/>
<path d="M121.682 104.255H120.898C120.822 104.255 120.76 104.358 120.76 104.485V105.09C120.76 105.217 120.822 105.32 120.898 105.32H121.682C121.758 105.32 121.819 105.217 121.819 105.09V104.485C121.819 104.358 121.758 104.255 121.682 104.255Z" fill="#3F3D56"/>
<path d="M123.8 104.255H123.015C122.939 104.255 122.878 104.358 122.878 104.485V105.09C122.878 105.217 122.939 105.32 123.015 105.32H123.8C123.876 105.32 123.937 105.217 123.937 105.09V104.485C123.937 104.358 123.876 104.255 123.8 104.255Z" fill="#3F3D56"/>
<path d="M126.976 104.255H126.192C126.116 104.255 126.055 104.358 126.055 104.485V105.09C126.055 105.217 126.116 105.32 126.192 105.32H126.976C127.052 105.32 127.114 105.217 127.114 105.09V104.485C127.114 104.358 127.052 104.255 126.976 104.255Z" fill="#3F3D56"/>
<path d="M129.094 104.255H128.31C128.234 104.255 128.172 104.358 128.172 104.485V105.09C128.172 105.217 128.234 105.32 128.31 105.32H129.094C129.17 105.32 129.232 105.217 129.232 105.09V104.485C129.232 104.358 129.17 104.255 129.094 104.255Z" fill="#3F3D56"/>
<path d="M132.132 104.255H130.565C130.413 104.255 130.29 104.358 130.29 104.485V105.088C130.29 105.215 130.413 105.318 130.565 105.318H132.132C132.284 105.318 132.407 105.215 132.407 105.088V104.485C132.407 104.358 132.284 104.255 132.132 104.255Z" fill="#3F3D56"/>
<path d="M134.388 104.255H133.604C133.528 104.255 133.466 104.358 133.466 104.485V105.09C133.466 105.217 133.528 105.32 133.604 105.32H134.388C134.464 105.32 134.526 105.217 134.526 105.09V104.485C134.526 104.358 134.464 104.255 134.388 104.255Z" fill="#3F3D56"/>
<path d="M136.505 104.255H135.721C135.645 104.255 135.584 104.358 135.584 104.485V105.088C135.584 105.215 135.645 105.318 135.721 105.318H136.505C136.581 105.318 136.642 105.215 136.642 105.088V104.485C136.642 104.358 136.581 104.255 136.505 104.255Z" fill="#3F3D56"/>
<path d="M139.682 104.255H138.898C138.822 104.255 138.761 104.358 138.761 104.485V105.088C138.761 105.215 138.822 105.318 138.898 105.318H139.682C139.758 105.318 139.819 105.215 139.819 105.088V104.485C139.819 104.358 139.758 104.255 139.682 104.255Z" fill="#3F3D56"/>
<path d="M141.8 104.255H141.016C140.94 104.255 140.878 104.358 140.878 104.485V105.09C140.878 105.217 140.94 105.32 141.016 105.32H141.8C141.876 105.32 141.938 105.217 141.938 105.09V104.485C141.938 104.358 141.876 104.255 141.8 104.255Z" fill="#3F3D56"/>
<path d="M144.976 104.255H144.192C144.116 104.255 144.055 104.358 144.055 104.485V105.09C144.055 105.217 144.116 105.32 144.192 105.32H144.976C145.052 105.32 145.114 105.217 145.114 105.09V104.485C145.114 104.358 145.052 104.255 144.976 104.255Z" fill="#3F3D56"/>
<path d="M147.094 104.255H146.31C146.234 104.255 146.172 104.358 146.172 104.485V105.09C146.172 105.217 146.234 105.32 146.31 105.32H147.094C147.17 105.32 147.232 105.217 147.232 105.09V104.485C147.232 104.358 147.17 104.255 147.094 104.255Z" fill="#3F3D56"/>
<path d="M150.132 104.255H148.565C148.414 104.255 148.291 104.358 148.291 104.485V105.088C148.291 105.215 148.414 105.318 148.565 105.318H150.132C150.284 105.318 150.407 105.215 150.407 105.088V104.485C150.407 104.358 150.284 104.255 150.132 104.255Z" fill="#3F3D56"/>
<path d="M152.388 104.255H151.604C151.528 104.255 151.467 104.358 151.467 104.485V105.088C151.467 105.215 151.528 105.318 151.604 105.318H152.388C152.464 105.318 152.525 105.215 152.525 105.088V104.485C152.525 104.358 152.464 104.255 152.388 104.255Z" fill="#3F3D56"/>
<path d="M155.426 104.255H153.859C153.707 104.255 153.584 104.358 153.584 104.485V105.088C153.584 105.215 153.707 105.318 153.859 105.318H155.426C155.578 105.318 155.701 105.215 155.701 105.088V104.485C155.701 104.358 155.578 104.255 155.426 104.255Z" fill="#3F3D56"/>
<path d="M157.682 104.255H156.899C156.823 104.255 156.761 104.358 156.761 104.485V105.088C156.761 105.215 156.823 105.318 156.899 105.318H157.682C157.758 105.318 157.82 105.215 157.82 105.088V104.485C157.82 104.358 157.758 104.255 157.682 104.255Z" fill="#3F3D56"/>
<path d="M159.801 104.255H159.016C158.94 104.255 158.879 104.358 158.879 104.485V105.09C158.879 105.217 158.94 105.32 159.016 105.32H159.801C159.877 105.32 159.938 105.217 159.938 105.09V104.485C159.938 104.358 159.877 104.255 159.801 104.255Z" fill="#3F3D56"/>
<path d="M171.327 43.6166H105.135C105.066 43.6137 105.001 43.5564 104.953 43.457C104.904 43.3576 104.877 43.224 104.877 43.0848C104.877 42.9457 104.904 42.8121 104.953 42.7127C105.001 42.6133 105.066 42.556 105.135 42.5531H171.327C171.396 42.556 171.462 42.6133 171.51 42.7127C171.558 42.8121 171.585 42.9457 171.585 43.0848C171.585 43.224 171.558 43.3576 171.51 43.457C171.462 43.5564 171.396 43.6137 171.327 43.6166Z" fill="#CACACA"/>
<path d="M109.642 41.4892C110.519 41.4892 111.23 40.7748 111.23 39.8935C111.23 39.0122 110.519 38.2977 109.642 38.2977C108.765 38.2977 108.054 39.0122 108.054 39.8935C108.054 40.7748 108.765 41.4892 109.642 41.4892Z" fill="#3F3D56"/>
<path d="M114.936 41.4892C115.813 41.4892 116.524 40.7748 116.524 39.8935C116.524 39.0122 115.813 38.2977 114.936 38.2977C114.059 38.2977 113.348 39.0122 113.348 39.8935C113.348 40.7748 114.059 41.4892 114.936 41.4892Z" fill="#3F3D56"/>
<path d="M120.76 41.4892C121.345 41.4892 121.818 40.7748 121.818 39.8935C121.818 39.0122 121.345 38.2977 120.76 38.2977C120.175 38.2977 119.701 39.0122 119.701 39.8935C119.701 40.7748 120.175 41.4892 120.76 41.4892Z" fill="#3F3D56"/>
<path d="M168.134 38.2977H164.447C164.373 38.3005 164.304 38.3578 164.253 38.4573C164.202 38.5568 164.173 38.6905 164.173 38.8298C164.173 38.9692 164.202 39.103 164.253 39.2025C164.304 39.3019 164.373 39.3592 164.447 39.362H168.134C168.207 39.3592 168.277 39.3019 168.328 39.2025C168.379 39.103 168.408 38.9692 168.408 38.8298C168.408 38.6905 168.379 38.5568 168.328 38.4573C168.277 38.3578 168.207 38.3005 168.134 38.2977Z" fill="#3F3D56"/>
<path d="M168.134 39.3616H164.447C164.373 39.3643 164.304 39.4216 164.253 39.521C164.202 39.6204 164.173 39.754 164.173 39.8932C164.173 40.0324 164.202 40.166 164.253 40.2654C164.304 40.3648 164.373 40.4221 164.447 40.4248H168.134C168.207 40.4221 168.277 40.3648 168.328 40.2654C168.379 40.166 168.408 40.0324 168.408 39.8932C168.408 39.754 168.379 39.6204 168.328 39.521C168.277 39.4216 168.207 39.3643 168.134 39.3616Z" fill="#3F3D56"/>
<path d="M168.134 40.4254H164.447C164.373 40.4282 164.304 40.4854 164.253 40.5848C164.202 40.6842 164.173 40.8179 164.173 40.9571C164.173 41.0963 164.202 41.2299 164.253 41.3293C164.304 41.4287 164.373 41.4859 164.447 41.4887H168.134C168.207 41.4859 168.277 41.4287 168.328 41.3293C168.379 41.2299 168.408 41.0963 168.408 40.9571C168.408 40.8179 168.379 40.6842 168.328 40.5848C168.277 40.4854 168.207 40.4282 168.134 40.4254Z" fill="#3F3D56"/>
<path d="M143.982 58.5105H135.657C135.032 58.5105 134.525 58.987 134.525 59.5749V59.5749C134.525 60.1628 135.032 60.6393 135.657 60.6393H143.982C144.607 60.6393 145.114 60.1628 145.114 59.5749V59.5749C145.114 58.987 144.607 58.5105 143.982 58.5105Z" fill="#6C63FF"/>
<path d="M149.285 62.7659H130.354C129.734 62.7659 129.231 63.4804 129.231 64.3619V64.3619C129.231 65.2433 129.734 65.9579 130.354 65.9579H149.285C149.905 65.9579 150.408 65.2433 150.408 64.3619V64.3619C150.408 63.4804 149.905 62.7659 149.285 62.7659Z" fill="#E6E6E6"/>
<path d="M149.285 68.085H130.354C129.734 68.085 129.231 68.5615 129.231 69.1494C129.231 69.7372 129.734 70.2138 130.354 70.2138H149.285C149.905 70.2138 150.408 69.7372 150.408 69.1494C150.408 68.5615 149.905 68.085 149.285 68.085Z" fill="#E6E6E6"/>
<path d="M106.326 110.638H85.428C84.689 110.638 83.9803 110.925 83.4577 111.437C82.9352 111.949 82.6416 112.642 82.6416 113.366C82.6416 114.089 82.9352 114.783 83.4577 115.295C83.9803 115.806 84.689 116.094 85.428 116.094H93.0908V137.234H98.6637V116.094H106.326C107.065 116.094 107.774 115.806 108.297 115.295C108.819 114.783 109.113 114.089 109.113 113.366C109.113 112.642 108.819 111.949 108.297 111.437C107.774 110.925 107.065 110.638 106.326 110.638Z" fill="#3F3D56"/>
<path d="M119.921 148.936H64.9286C59.5974 148.916 54.4512 146.98 50.4299 143.479C46.4087 139.979 43.7809 135.149 43.0266 129.872L41.0801 122.712C37.051 107.875 30.914 93.6924 22.8567 80.5984C19.1739 74.6177 17.2784 68.8285 21.5837 63.2548C21.6204 63.2073 21.6564 63.1605 21.6919 63.1144C25.145 58.62 42.3321 57.6471 47.9351 57.4579C48.1564 57.4503 48.3786 57.4466 48.6016 57.4467H82.8061C83.0293 57.4467 83.2514 57.4504 83.4725 57.4579C86.493 57.5459 89.4332 58.4499 91.9813 60.074C94.5295 61.6981 96.5904 63.9817 97.9454 66.6825C99.3914 69.4399 100.064 72.5372 99.8916 75.646C99.7193 78.7547 98.7086 81.7587 96.9668 84.3395C84.9518 102.387 81.2732 113.704 85.0393 121.033C88.6823 128.121 99.8493 131.746 120.183 132.438C125.647 132.624 128.155 136.879 128.172 140.753C128.189 144.527 125.778 148.695 120.444 148.925C120.271 148.932 120.096 148.936 119.921 148.936Z" fill="#3F3D56"/>
<path d="M73.7806 198.936H94.6789C95.4179 198.936 96.1266 198.645 96.6492 198.127C97.1718 197.609 97.4653 196.906 97.4653 196.174C97.4653 195.442 97.1718 194.739 96.6492 194.221C96.1266 193.703 95.4179 193.412 94.6789 193.412H87.0162V146.808H81.4433V193.412H73.7806C73.0416 193.412 72.3328 193.703 71.8103 194.221C71.2877 194.739 70.9941 195.442 70.9941 196.174C70.9941 196.906 71.2877 197.609 71.8103 198.127C72.3328 198.645 73.0416 198.936 73.7806 198.936Z" fill="#3F3D56"/>
<path d="M72.1013 59.0267L72.5267 61.7298C72.728 63.0405 73.4568 72.2994 72.9169 73.4041C72.8693 71.3417 69.1961 68.0991 66.8161 68.8394L63.0811 69.7071L60.7629 70.2464L58.8761 70.679L53.3934 71.9314C53.3838 71.8649 53.3769 71.7942 53.3673 71.7276C53.3544 71.6437 53.3414 71.5599 53.3251 71.4767C53.2231 70.9391 53.0368 70.4227 52.774 69.9485C52.7462 70.5838 52.5668 71.2017 52.2523 71.746C52.2437 71.7601 52.2362 71.775 52.2299 71.7905C52.1325 71.9553 52.0251 72.1133 51.9082 72.2636C51.9028 72.2676 51.8979 72.2722 51.8937 72.2775C51.8937 72.2775 50.7671 53.5013 50.8851 53.328C50.9715 53.2049 51.0586 53.0852 51.1496 52.9682C51.24 52.8478 51.3277 52.7316 51.4221 52.6139C51.4342 52.6027 51.4444 52.5896 51.4524 52.5749C51.7167 52.2479 51.9965 51.935 52.2909 51.6374C52.3775 51.5503 52.4673 51.4625 52.5571 51.3747C53.9288 50.0477 55.5676 49.0593 57.353 48.4823C57.5543 48.4175 57.7637 48.3583 57.9764 48.2984C58.1864 48.2426 58.4005 48.1896 58.6159 48.1435L58.6888 48.1279C58.7915 48.1059 58.8983 48.0867 59.0017 48.0682C59.1315 48.044 59.2622 48.0233 59.3901 48.0067C61.0512 47.7565 62.7434 47.856 64.3673 48.2992C64.3706 48.2985 64.3713 48.302 64.3746 48.3013C65.7301 48.6716 67.0185 49.2715 68.1885 50.0772C70.2124 51.4745 71.0002 53.7535 71.5597 56.3124C71.7558 57.191 71.9209 58.105 72.1013 59.0267Z" fill="#2F2E41"/>
<path d="M93.23 179.972L96.7137 181.915L105.936 168.824L100.794 165.957L93.23 179.972Z" fill="#FFB6B6"/>
<path d="M94.5469 175.531L101.102 177.531L100.059 180.205L104.554 186.56C104.776 186.874 104.889 187.248 104.877 187.629C104.865 188.01 104.728 188.377 104.486 188.677C104.245 188.977 103.911 189.194 103.534 189.296C103.157 189.398 102.757 189.38 102.391 189.245L94.7598 186.421L94.4765 183.288L92.9309 185.744L90.0537 184.679L94.5469 175.531Z" fill="#2F2E41"/>
<path d="M112.393 121.165C111.829 121.301 111.242 121.313 110.673 121.2C110.103 121.087 109.566 120.852 109.099 120.512C108.631 120.172 108.245 119.735 107.967 119.231C107.689 118.727 107.526 118.17 107.49 117.597L77.3477 106.884L82.8795 102.127L111.489 113.382C112.467 113.386 113.409 113.743 114.137 114.388C114.865 115.032 115.329 115.917 115.44 116.877C115.552 117.836 115.303 118.803 114.741 119.593C114.18 120.383 113.344 120.943 112.393 121.165Z" fill="#FFB6B6"/>
<path d="M69.2108 79.7871C69.2108 79.7871 64.0546 79.9002 63.5961 85.7588C63.1377 91.6175 74.3885 106.109 76.1317 108.499C77.8748 110.888 97.2368 113.83 97.2368 113.83L103.819 109.074C96.9027 104.614 90.591 101.194 86.3551 101.348L69.2108 79.7871Z" fill="#6C63FF"/>
<path d="M62.5234 105.754L63.7776 111.021C63.7776 111.021 63.7899 115.877 64.6699 116.772C65.5438 117.663 84.7593 115.874 84.7593 115.874C84.7593 115.874 82.7219 108.049 82.749 102.127L62.5234 105.754Z" fill="#FFB6B6"/>
<path d="M103.01 174.468L96.0919 170.636C95.9603 161.571 101.375 149.304 107.797 136.454C93.4342 138.942 79.8846 139.739 68.1647 136.729C66.2407 136.218 64.5938 134.964 63.5801 133.24C62.5664 131.515 62.2671 129.458 62.7471 127.514C62.7927 127.323 62.8455 127.134 62.9053 126.947C64.308 122.637 61.1629 119.936 64.0556 115.196C71.664 112.579 78.8916 111.84 85.5009 114.151L89.6421 123.371L110.168 120.697C111.16 120.577 112.165 120.657 113.126 120.93C114.087 121.204 114.985 121.667 115.768 122.291C116.55 122.916 117.203 123.69 117.687 124.57C118.171 125.45 118.477 126.417 118.588 127.417C118.616 127.641 118.634 127.867 118.642 128.093C114.492 147.687 109.838 165.318 103.01 174.468Z" fill="#2F2E41"/>
<path d="M63.8932 68.4435C68.502 67.496 71.4736 62.9742 70.5306 58.3438C69.5875 53.7133 65.0869 50.7277 60.4782 51.6752C55.8694 52.6227 52.8978 57.1444 53.8408 61.7749C54.7839 66.4053 59.2845 69.3909 63.8932 68.4435Z" fill="#FFB6B6"/>
<path d="M59.7372 71.7453L67.6699 71.2792C68.0045 71.2595 68.3368 71.3442 68.6207 71.5214C68.9046 71.6987 69.1258 71.9597 69.2536 72.268L71.4953 77.6768L80.8123 85.3409C80.8123 85.3409 84.5011 90.0129 84.5096 96.0466C84.5182 102.08 85.8184 116.046 85.8184 116.046C85.8184 116.046 80.4348 108.504 77.1118 110.51C76.5465 110.851 76.3477 111.549 75.7555 111.902C75.4601 112.078 74.7777 111.907 74.4794 112.083C69.9005 114.788 65.1252 117.431 64.679 116.968C63.8029 116.058 62.7402 111.408 62.7402 111.408L55.4789 84.8551C55.0852 83.458 55.007 81.9915 55.25 80.5608C55.4929 79.13 56.0509 77.7706 56.884 76.5798C57.3913 75.8689 57.9228 75.3401 58.4167 75.2526C59.5258 75.0176 58.9359 72.5437 59.7372 71.7453Z" fill="#6C63FF"/>
<path d="M126.893 191.489L130.29 189.108L122.596 174.468L117.583 177.983L126.893 191.489Z" fill="#FFB6B6"/>
<path d="M127.113 181.532L121.91 186.17C113.636 176.977 107.381 164.084 102.08 149.443C88.1921 145.387 77.7185 138.846 68.5751 131.08C65.4733 128.463 63.1481 125.101 65.7935 121.913C65.9172 121.764 66.0463 121.62 66.1809 121.48C69.3044 118.28 77.2255 118.89 81.8648 115.957L92.2283 127.003L91.5764 129.964L111.042 136.539C111.979 136.866 112.841 137.375 113.58 138.036C114.318 138.698 114.918 139.498 115.344 140.392C115.771 141.285 116.016 142.254 116.065 143.243C116.114 144.231 115.967 145.219 115.631 146.151C115.558 146.361 115.476 146.568 115.385 146.772L127.113 181.532Z" fill="#2F2E41"/>
<path d="M124.996 190.26L130.426 186.17L132.113 188.492L140.085 188.468C140.479 188.467 140.862 188.586 141.18 188.809C141.498 189.031 141.733 189.345 141.852 189.704C141.97 190.063 141.965 190.449 141.838 190.805C141.711 191.162 141.468 191.47 141.145 191.685L134.4 196.17L131.568 194.646L132.783 197.245L130.24 198.936L124.996 190.26Z" fill="#2F2E41"/>
<path d="M71.6896 137.974C71.1474 137.75 70.6623 137.414 70.2683 136.988C69.8744 136.562 69.5813 136.057 69.4096 135.509C69.2379 134.96 69.1919 134.382 69.2747 133.815C69.3576 133.248 69.5673 132.705 69.8891 132.225L51.9351 105.868L59.3541 105.319L75.7291 131.206C76.5221 131.785 77.0691 132.627 77.2664 133.573C77.4638 134.518 77.2977 135.501 76.7998 136.335C76.3019 137.17 75.5067 137.797 74.5648 138.099C73.623 138.402 72.6 138.357 71.6896 137.974Z" fill="#FFB6B6"/>
<path d="M61.702 78.6299C61.702 78.6299 57.4268 75.6787 53.4757 80.0691C49.5247 84.4595 49.8546 102.624 49.8175 105.553C49.8058 106.47 51.1705 108.449 53.0506 110.735C53.8947 111.762 54.8427 112.85 55.8166 113.932C56.3803 114.558 55.8946 115.861 56.4606 116.469C57.0234 117.074 58.6379 116.985 59.1733 117.547C61.7145 120.212 63.779 122.241 63.779 122.241L72.0517 122.34C72.145 116.371 67.9336 111.043 62.523 105.894L61.702 78.6299Z" fill="#6C63FF"/>
<path d="M73.1121 55.6746C72.7889 55.834 72.4754 55.9879 72.1674 56.1334C70.9315 56.7404 69.6542 57.2595 68.3452 57.6868C68.1273 57.0949 67.795 56.5516 67.3672 56.0878C67.4767 56.7282 67.4209 57.386 67.2051 57.9989C65.2237 58.4891 63.1437 58.4089 61.206 57.7675C62.4732 60.1116 63.4095 65.0513 63.3413 69.4567C63.3116 71.7859 62.9961 73.9653 62.307 75.5317L61.4215 72.8402C61.3394 71.8787 61.1743 70.9261 60.9282 69.9931C60.3344 67.3748 59.7801 69.1254 58.9641 70.4233L53.2568 71.6691C53.2468 71.6029 53.2396 71.5325 53.2296 71.4664C53.2161 71.3829 53.2027 71.2995 53.1857 71.2168C53.0795 70.682 52.8856 70.1684 52.612 69.6967C52.5831 70.3286 52.3964 70.9432 52.0689 71.4846C52.06 71.4987 52.0522 71.5135 52.0456 71.5289C51.9443 71.6928 51.8324 71.85 51.7107 71.9995C51.7051 72.0034 51.7 72.0081 51.6956 72.0133C48.0108 72.506 45.4278 53.5217 50.6465 53.1685C50.7982 53.1582 50.827 52.9269 50.9211 52.8072C51.0152 52.6874 51.1065 52.5718 51.2047 52.4547C51.2173 52.4436 51.228 52.4305 51.2363 52.416C51.5152 52.0932 51.8039 51.7829 52.1092 51.4835C52.1992 51.3968 52.2928 51.3095 52.3863 51.2222C53.8185 49.9087 55.5235 48.9275 57.3793 48.3487C57.5889 48.2843 57.8061 48.2219 58.0275 48.1623C58.2462 48.1068 58.469 48.0541 58.6932 48.0082L58.7691 47.9927C58.8761 47.9708 58.9872 47.9517 59.0948 47.9333C59.23 47.9093 59.366 47.8886 59.4992 47.8722C59.9993 48.124 60.4273 48.4986 60.7429 48.9609L64.3891 48.2155C64.4857 48.1957 64.583 48.1794 64.681 48.1666L64.6879 48.1652C69.24 47.4033 72.1669 51.0599 73.1121 55.6746Z" fill="#2F2E41"/>
<path d="M53.7648 52.8389C52.9747 53.4489 52.1435 54.0775 51.1794 54.2286C50.2153 54.3798 49.0866 53.8812 48.8198 52.8786C48.4935 51.6527 49.5282 50.5366 50.4582 49.7399L53.4072 47.2136C53.9473 46.7012 54.5569 46.2795 55.2153 45.9629C55.546 45.8073 55.9052 45.7332 56.2663 45.7461C56.6274 45.759 56.9811 45.8586 57.3014 46.0375C57.6183 46.2665 57.8752 46.5785 58.0476 46.9437C58.2199 47.309 58.302 47.7153 58.286 48.1241C58.2439 48.9434 57.9912 49.7344 57.5556 50.4098C57.0082 51.3226 56.2938 52.1075 55.4553 52.7173C54.6169 53.327 53.6719 53.7489 52.677 53.9576" fill="#2F2E41"/>
<path d="M74.6724 111.702H54.61C53.9006 111.702 53.2202 112.001 52.7185 112.533C52.2169 113.065 51.9351 113.786 51.9351 114.539C51.9351 115.291 52.2169 116.013 52.7185 116.545C53.2202 117.077 53.9006 117.376 54.61 117.376H61.9663V139.361H67.3162V117.376H74.6724C75.3819 117.376 76.0623 117.077 76.5639 116.545C77.0656 116.013 77.3474 115.291 77.3474 114.539C77.3474 113.786 77.0656 113.065 76.5639 112.533C76.0623 112.001 75.3819 111.702 74.6724 111.702Z" fill="#3F3D56"/>
<path d="M151.06 199.879L0.459276 200C0.351087 200 0.247439 199.95 0.171048 199.862C0.0946578 199.773 0.0517578 199.654 0.0517578 199.529C0.0517578 199.404 0.0946578 199.284 0.171048 199.196C0.247439 199.108 0.351087 199.058 0.459276 199.057L151.06 198.936C151.168 198.936 151.271 198.986 151.348 199.074C151.424 199.163 151.467 199.282 151.467 199.407C151.467 199.532 151.424 199.652 151.348 199.74C151.271 199.828 151.168 199.878 151.06 199.879Z" fill="#CACACA"/>
<path d="M194.879 153.697L198.235 157.447L213.939 145.959L208.986 140.425L194.879 153.697Z" fill="#FFB6B6"/>
<path d="M201.745 159.25V159.247L201.412 155.636L201.261 155.565L200.377 155.14L196.205 153.146L196.117 153.051L195.28 152.127L190.645 156.427L196.924 163.343L201.231 168.085L201.375 167.949C201.965 167.403 202.443 166.744 202.781 166.011C203.119 165.278 203.311 164.485 203.345 163.677C203.379 162.869 203.256 162.062 202.981 161.303C202.707 160.543 202.287 159.846 201.745 159.25H201.745Z" fill="#2F2E41"/>
<path d="M177.938 190.091L182.737 191.489L190.644 174.403L183.561 172.34L177.938 190.091Z" fill="#FFB6B6"/>
<path d="M189.896 194.13C189.507 193.426 188.976 192.804 188.334 192.299C187.692 191.794 186.952 191.417 186.156 191.188L183.968 188.297L183.797 188.311L178.017 188.819L177.888 188.782L176.66 188.424L174.762 194.41L190.311 198.936L190.37 198.745C190.613 197.984 190.696 197.184 190.614 196.392C190.533 195.6 190.289 194.831 189.896 194.13Z" fill="#2F2E41"/>
<path d="M216.587 97.8721C216.587 97.8721 246.846 127.034 227.717 136.061H221.805C221.805 136.061 220.028 129.76 215.96 124.446C215.402 123.717 213.309 123.865 212.728 123.154C209.179 118.812 205.332 115.083 202.676 115.231L203.311 135.38L204.34 142.567C204.88 146.282 189.637 178.723 189.637 178.723L180.056 174.964C180.056 174.964 190.038 148.245 190.155 144.393L182.155 102.038L216.587 97.8721Z" fill="#2F2E41"/>
<path d="M218.983 99.5536C218.828 99.7775 218.625 99.9634 218.39 100.098C218.002 100.32 217.582 100.477 217.145 100.565C210.296 102.139 187.921 105.401 182.113 103.845C181.4 103.657 180.934 103.391 180.783 103.043C180.297 101.94 180.359 97.2823 180.645 91.6582C180.696 90.6045 181.844 89.4637 181.913 88.3612C181.962 87.5343 180.931 86.7563 180.986 85.9154C181.365 80.2285 181.855 74.4334 182.182 70.77C182.389 68.415 182.53 66.9427 182.53 66.9427L178.997 44.3938L179.163 44.1182L179.349 44.024L190.741 38.3162L191.362 36.7113C191.541 36.2492 191.854 35.8522 192.259 35.5717C192.664 35.2912 193.142 35.1401 193.633 35.1378L201.137 35.1064C201.527 35.1042 201.911 35.1961 202.258 35.3745C202.605 35.5529 202.905 35.8127 203.133 36.1321L205.167 38.9825L218.61 47.7048L218.559 47.8653L212.251 67.2951L212.22 68.8093V68.8128L211.985 80.9891L212.637 82.6393L211.902 85.3467C211.902 85.3467 212.24 88.5112 214.05 90.8627C215.691 92.9979 217.78 95.2239 218.724 97.0311V97.0346C219.248 98.0324 219.424 98.8977 218.983 99.5536Z" fill="#6C63FF"/>
<path d="M229.821 134.668L228.18 136.671C228.18 136.671 213.085 146.867 212.567 147.82L210.181 150L204.409 144.042L207.411 140.409C209.813 137.502 212.917 135.208 216.45 133.728L221.051 129.787L229.821 134.668Z" fill="#2F2E41"/>
<path d="M219.465 105.133L216.768 78.3708L216.057 67.3566L223.603 65.9573C223.603 65.9573 223.304 73.8328 224.293 78.2763C225.269 82.661 224.422 104.545 224.362 105.13C224.916 105.638 225.307 106.307 225.482 107.048C225.658 107.789 225.61 108.567 225.345 109.279C225.08 109.992 224.61 110.604 223.998 111.037C223.386 111.47 222.66 111.701 221.916 111.702C221.173 111.702 220.447 111.471 219.834 111.039C219.222 110.607 218.751 109.995 218.485 109.283C218.22 108.571 218.171 107.793 218.346 107.052C218.521 106.31 218.911 105.641 219.465 105.133Z" fill="#FFB6B6"/>
<path d="M227.135 84.1149L217.42 86.17L216.57 82.709L215.58 81.6352L213.601 71.0422L210.762 64.837L211.5 43.6169L218.711 47.5251L218.719 47.532C219.822 48.7555 220.582 50.5065 221.846 52.2635C225.828 57.8001 226.27 71.2534 226.15 78.6224C226.148 78.7433 226.267 78.871 226.41 79.0053C227.088 79.6415 227.53 80.4972 227.662 81.4281C227.795 82.359 227.608 83.308 227.135 84.1149V84.1149Z" fill="#6C63FF"/>
<path d="M175.589 106.196L178.285 79.4347L178.997 68.4204L171.45 67.0211C171.45 67.0211 171.749 74.8966 170.761 79.3401C169.785 83.7248 170.631 105.609 170.691 106.194C170.137 106.702 169.747 107.371 169.571 108.112C169.396 108.853 169.444 109.631 169.709 110.343C169.974 111.055 170.443 111.668 171.056 112.101C171.668 112.533 172.394 112.765 173.137 112.766C173.881 112.766 174.607 112.535 175.219 112.103C175.832 111.671 176.302 111.058 176.568 110.346C176.834 109.634 176.883 108.856 176.708 108.115C176.533 107.374 176.143 106.705 175.589 106.196Z" fill="#FFB6B6"/>
<path d="M184.291 66.369L182.186 70.872L181.451 72.4402L179.472 82.7992L178.484 83.8481L177.633 87.2339L177.233 87.1519L170.021 85.6588L167.919 85.2249C167.446 84.4359 167.259 83.5075 167.391 82.5967C167.523 81.686 167.966 80.8487 168.644 80.2265C168.787 80.0967 168.907 79.9703 168.904 79.8507C168.784 72.6452 169.225 59.4881 173.207 54.0729C174.471 52.3543 175.23 50.6426 176.334 49.4469C176.338 49.4435 176.338 49.44 176.341 49.44L179.028 45.0429L179.192 44.773L179.376 44.6808L184.291 66.369Z" fill="#6C63FF"/>
<path d="M197.527 32.9786C203.082 32.9786 207.586 28.4538 207.586 22.8722C207.586 17.2906 203.082 12.7659 197.527 12.7659C191.971 12.7659 187.468 17.2906 187.468 22.8722C187.468 28.4538 191.971 32.9786 197.527 32.9786Z" fill="#FFB6B6"/>
<path d="M208.639 18.9477C208.605 17.23 208.417 15.0325 207.252 13.2801C206.268 11.8058 204.285 10.6375 202.436 11.2217C202.457 10.84 202.375 10.4598 202.199 10.1234C202.023 9.78703 201.76 9.50762 201.439 9.31625C200.739 8.87466 199.897 8.79469 199.153 8.72167C197.277 8.54086 195.334 8.3531 193.435 8.72514C191.303 9.14239 189.558 10.2759 188.653 11.8371L188.632 11.8858L188.447 12.8107C188.422 12.9347 188.372 13.0518 188.299 13.1538C188.227 13.2559 188.133 13.3405 188.026 13.4018C187.919 13.464 187.799 13.501 187.677 13.51C187.554 13.519 187.43 13.4999 187.316 13.454C187.19 13.4053 187.054 13.3913 186.922 13.4135C186.789 13.4356 186.664 13.493 186.56 13.5801C186.456 13.6672 186.375 13.781 186.326 13.9101C186.277 14.0392 186.262 14.1792 186.282 14.3163L186.332 14.6849L185.797 14.5805C185.662 14.5537 185.524 14.5643 185.394 14.6114C185.265 14.6585 185.151 14.7403 185.063 14.8484C184.974 14.9565 184.916 15.087 184.893 15.2263C184.87 15.3657 184.883 15.5088 184.931 15.641L185.08 16.0618C184.969 16.0633 184.86 16.0878 184.759 16.1338C184.657 16.1798 184.566 16.2463 184.49 16.3295C184.382 16.4507 184.314 16.6043 184.296 16.768C184.278 16.9317 184.31 17.0972 184.389 17.2405C184.989 18.2982 185.84 19.1812 186.861 19.8066C187.32 20.0922 187.815 20.311 188.333 20.4568C188.44 20.4881 188.552 20.5159 188.666 20.5402C192.801 21.4603 197.063 21.5923 201.244 20.9297C200.998 21.7813 200.903 22.6719 200.964 23.5583C201.099 24.6675 201.729 25.582 202.571 25.888C202.761 25.9546 202.957 26.0035 203.157 26.034C203.348 26.0659 203.536 26.1136 203.719 26.1766C203.99 26.279 204.23 26.4535 204.414 26.6823C204.599 26.9112 204.722 27.1863 204.77 27.4799C204.819 27.7735 204.791 28.0751 204.691 28.3542C204.59 28.6333 204.42 28.8801 204.197 29.0695C204.197 29.0695 205.08 29.824 205.191 29.7858C205.624 29.588 205.987 29.2548 206.228 28.833C207.908 26.3365 208.72 23.0124 208.639 18.9477Z" fill="#2F2E41"/>
</g>
<defs>
<clipPath id="clip0_163_2061">
<rect width="266" height="200" fill="white"/>
</clipPath>
</defs>
</svg>
