<svg width="282" height="200" viewBox="0 0 282 200" fill="none" xmlns="http://www.w3.org/2000/svg">
<g clip-path="url(#clip0_163_2153)">
<path d="M50.5718 100.901C50.376 101.184 50.126 101.417 49.8395 101.582C49.5531 101.748 49.2371 101.842 48.9138 101.859C48.5906 101.876 48.2679 101.814 47.9685 101.679C47.6692 101.544 47.4004 101.338 47.1812 101.076L39.9673 104.527L40.67 100.098L47.4127 97.5002C47.837 97.1243 48.372 96.9327 48.9162 96.9616C49.4604 96.9905 49.9761 97.238 50.3655 97.6571C50.7549 98.0763 50.991 98.638 51.029 99.2357C51.067 99.8335 50.9044 100.426 50.5718 100.901V100.901Z" fill="#A0616A"/>
<path d="M45.7583 102.283L29.0028 110.492L28.9668 110.478L9.86981 102.993C8.44734 102.176 7.36286 100.791 6.83842 99.1226C6.31398 97.4542 6.38926 95.6285 7.04884 94.0192C7.41445 93.1301 7.94713 92.3362 8.61182 91.6897C9.27651 91.0433 10.0581 90.5591 10.9053 90.2689C11.7524 89.9786 12.6458 89.889 13.5267 90.0059C14.4076 90.1228 15.2559 90.4436 16.016 90.9471L30.2277 100.363L44.0087 98.3984L45.7583 102.283Z" fill="#3F3D56"/>
<path d="M52.7779 48.2373C46.4437 32.8279 46.6773 13.2958 56.5077 0.292725C59.7966 18.3236 68.7784 34.494 81.864 45.9427C86.9251 50.3379 92.9704 54.6468 94.353 61.5743C95.2133 65.8847 93.9939 70.4439 91.8857 74.1987C89.7774 77.9535 86.8387 81.0422 83.9334 84.0862L83.6074 85.1279C70.9655 75.5016 59.1121 63.6467 52.7779 48.2373Z" fill="#F0F0F0"/>
<path d="M56.7815 0.480754C54.5191 14.1056 56.1998 28.6136 61.6987 41.0965C62.8876 43.7953 64.3071 46.4192 66.2077 48.5897C68.0751 50.6898 70.4196 52.2016 72.9979 52.9681C75.3888 53.7358 77.9153 54.2167 80.0949 55.6103C82.3923 57.0792 83.818 59.5439 84.3735 62.3704C85.053 65.8287 84.5622 69.3493 83.9735 72.7739C83.3198 76.5761 82.586 80.5141 83.5333 84.3364C83.648 84.7995 82.9879 84.9683 82.8733 84.5059C81.2253 77.8558 84.4296 71.297 83.9817 64.611C83.7727 61.4912 82.7075 58.4217 80.2753 56.6141C78.1484 55.0335 75.5435 54.5352 73.1165 53.7808C70.5682 52.9887 68.2796 51.7788 66.3322 49.7718C64.3401 47.7188 62.8242 45.1504 61.5779 42.4969C58.7923 36.4566 56.8877 29.9721 55.9336 23.281C54.8063 15.6512 54.874 7.86549 56.1338 0.260774C56.212 -0.209872 56.8591 0.0131759 56.7815 0.480754Z" fill="white"/>
<path d="M59.7165 37.1428C57.6644 37.8661 55.4454 37.7636 53.4557 36.8536C51.4659 35.9436 49.8351 34.2854 48.8544 32.175C48.6573 31.7472 49.2524 31.3903 49.4498 31.8186C50.3597 33.7856 51.879 35.3301 53.7334 36.1734C55.5878 37.0166 57.6552 37.103 59.5624 36.417C59.977 36.2684 60.1288 36.9951 59.7165 37.1428L59.7165 37.1428Z" fill="white"/>
<path d="M71.7387 52.7546C73.7893 48.4667 74.295 43.4864 73.1551 38.8066C73.0419 38.343 73.7019 38.1741 73.8151 38.6371C74.993 43.5094 74.4571 48.6911 72.3143 53.148C72.1098 53.5726 71.5353 53.177 71.7387 52.7546Z" fill="white"/>
<path d="M55.6775 15.8933C56.5245 15.7954 57.3361 15.4676 58.0395 14.9395C58.7429 14.4113 59.316 13.6993 59.7074 12.8673C59.9069 12.44 60.4812 12.8362 60.283 13.2607C59.8467 14.1777 59.2129 14.9632 58.4369 15.5486C57.661 16.1341 56.7665 16.5016 55.8316 16.6191C55.7443 16.6383 55.6536 16.6202 55.578 16.5686C55.5024 16.5169 55.4476 16.4355 55.4246 16.341C55.4046 16.2447 55.42 16.1437 55.4673 16.0599C55.5147 15.9761 55.5902 15.9162 55.6775 15.8933Z" fill="white"/>
<path d="M108.568 0.443726C108.45 0.714432 108.333 0.985134 108.218 1.26137C106.653 4.90982 105.36 8.69207 104.352 12.5708C104.27 12.8693 104.19 13.1732 104.116 13.4737C101.778 22.8469 101.043 32.616 101.947 42.2845C102.311 46.1314 102.939 49.9424 103.828 53.6844C105.056 58.8522 106.761 64.348 106.377 69.5082C106.342 70.0471 106.277 70.583 106.182 71.1131L84.7883 85.4846C84.7248 85.4904 84.664 85.5017 84.6003 85.5077L83.7699 86.1245C83.7118 85.935 83.6553 85.7371 83.5972 85.5477C83.5631 85.4379 83.5337 85.325 83.4996 85.2152C83.4784 85.141 83.4573 85.0666 83.4343 85.001C83.4272 84.9764 83.4203 84.9515 83.4161 84.9322C83.3931 84.8666 83.378 84.803 83.358 84.7428C83.0391 83.6376 82.7267 82.5281 82.4208 81.4141C82.4178 81.4087 82.4178 81.4088 82.4196 81.4002C80.1085 72.906 78.4219 64.125 78.0007 55.3416C77.9881 55.0773 77.9723 54.8078 77.9695 54.537C77.7996 50.5767 77.9243 46.6077 78.3424 42.6697C78.5776 40.5142 78.9119 38.3732 79.344 36.2549C80.4699 30.7839 82.3714 25.5416 84.9785 20.7204C90.1771 11.1103 98.1124 3.43564 107.824 0.648672C108.073 0.577538 108.317 0.50944 108.568 0.443726Z" fill="#F0F0F0"/>
<path d="M108.686 0.774577C99.4209 10.1553 92.8208 22.8521 90.378 36.4603C89.8498 39.4024 89.5469 42.4374 89.8761 45.429C90.2175 48.3423 91.2619 51.102 92.9009 53.4212C94.3896 55.6174 96.1437 57.6743 97.1211 60.2303C98.1513 62.9244 97.9404 65.8365 96.8366 68.4611C95.486 71.6723 93.1669 74.1584 90.8221 76.5028C88.2187 79.1059 85.4771 81.7643 84.141 85.4435C83.9791 85.8892 83.3597 85.5869 83.5213 85.1418C85.8458 78.7407 91.9948 75.6256 95.2972 69.9906C96.8382 67.3612 97.6681 64.2051 96.7156 61.1513C95.8827 58.4808 94.0755 56.3581 92.5507 54.1487C90.9496 51.8288 89.7846 49.3473 89.3284 46.4553C88.8617 43.4969 89.0574 40.4424 89.5148 37.4984C90.5974 30.831 92.6264 24.3923 95.5275 18.418C98.8042 11.5795 103.12 5.40788 108.289 0.170108C108.609 -0.153932 109.004 0.452655 108.686 0.774572V0.774577Z" fill="white"/>
<path d="M90.9602 31.9908C88.9255 31.2095 87.2097 29.6583 86.119 27.6141C85.0283 25.57 84.634 23.1661 85.0062 20.8317C85.083 20.3597 85.7537 20.4687 85.6768 20.9414C85.3265 23.1145 85.6941 25.3537 86.7132 27.2549C87.7324 29.1561 89.336 30.594 91.2345 31.3092C91.647 31.4652 91.3703 32.1458 90.9602 31.9908H90.9602Z" fill="white"/>
<path d="M92.0124 52.4168C95.997 50.351 99.1272 46.7093 100.779 42.218C100.942 41.7728 101.562 42.075 101.399 42.5196C99.6718 47.1899 96.4074 50.9723 92.2567 53.112C91.8609 53.3157 91.6188 52.6193 92.0124 52.4168Z" fill="white"/>
<path d="M99.3671 12.3498C100.097 12.8322 100.924 13.1079 101.775 13.1519C102.626 13.1959 103.473 13.007 104.241 12.6021C104.634 12.3931 104.876 13.0894 104.486 13.297C103.635 13.74 102.699 13.9474 101.759 13.9011C100.819 13.8547 99.9036 13.556 99.0928 13.031C99.0126 12.9885 98.9501 12.9141 98.9181 12.8229C98.886 12.7316 98.8867 12.6303 98.9201 12.5396C98.9569 12.4496 99.0244 12.3792 99.1081 12.3436C99.1918 12.3081 99.2849 12.3103 99.3671 12.3498Z" fill="white"/>
<path d="M190.597 56.3312C184.262 40.9218 184.496 21.3897 194.327 8.3866C197.616 26.4175 206.598 42.5879 219.684 54.0366C224.745 58.4318 230.791 62.7407 232.173 69.6682C233.034 73.9787 231.814 78.5379 229.706 82.2926C227.598 86.0474 224.659 89.1362 221.753 92.1801L221.427 93.2218C208.785 83.5955 196.931 71.7406 190.597 56.3312Z" fill="#F0F0F0"/>
<path d="M194.6 8.57463C192.337 22.1995 194.018 36.7075 199.517 49.1905C200.706 51.8892 202.125 54.5132 204.026 56.6837C205.893 58.7838 208.238 60.2956 210.816 61.0621C213.207 61.8298 215.734 62.3106 217.913 63.7042C220.211 65.1732 221.636 67.6379 222.192 70.4644C222.871 73.9227 222.381 77.4434 221.792 80.8679C221.138 84.6702 220.404 88.6082 221.352 92.4305C221.466 92.8936 220.806 93.0624 220.692 92.5999C219.044 85.9498 222.248 79.391 221.8 72.705C221.591 69.5852 220.526 66.5157 218.094 64.7081C215.967 63.1275 213.362 62.6292 210.935 61.8748C208.387 61.0827 206.098 59.8728 204.151 57.8658C202.158 55.8128 200.643 53.2444 199.396 50.5909C196.611 44.5505 194.706 38.066 193.752 31.3749C192.625 23.7451 192.692 15.9594 193.952 8.35465C194.03 7.884 194.677 8.10705 194.6 8.57463Z" fill="white"/>
<path d="M197.535 45.2367C195.483 45.96 193.264 45.8575 191.274 44.9475C189.285 44.0375 187.654 42.3792 186.673 40.2689C186.476 39.8411 187.071 39.4842 187.269 39.9125C188.179 41.8795 189.698 43.424 191.552 44.2672C193.407 45.1105 195.474 45.1969 197.381 44.5109C197.796 44.3623 197.948 45.089 197.535 45.2367V45.2367Z" fill="white"/>
<path d="M209.558 60.8485C211.608 56.5606 212.114 51.5802 210.974 46.9005C210.861 46.4369 211.521 46.268 211.634 46.731C212.812 51.6033 212.276 56.785 210.133 61.2419C209.929 61.6665 209.354 61.2708 209.558 60.8485Z" fill="white"/>
<path d="M193.496 23.9872C194.343 23.8893 195.155 23.5615 195.858 23.0334C196.562 22.5052 197.135 21.7932 197.526 20.9612C197.726 20.5339 198.3 20.9301 198.102 21.3546C197.666 22.2715 197.032 23.0571 196.256 23.6425C195.48 24.2279 194.585 24.5955 193.65 24.713C193.563 24.7322 193.472 24.7141 193.397 24.6624C193.321 24.6108 193.266 24.5294 193.243 24.4348C193.223 24.3386 193.239 24.2376 193.286 24.1538C193.334 24.07 193.409 24.0101 193.496 23.9872Z" fill="white"/>
<path d="M246.386 8.5376C246.269 8.80831 246.151 9.07901 246.036 9.35525C244.471 13.0037 243.178 16.786 242.17 20.6648C242.088 20.9633 242.009 21.2672 241.935 21.5677C239.597 30.941 238.861 40.7102 239.766 50.3787C240.129 54.2256 240.758 58.0366 241.647 61.7787C242.874 66.9465 244.58 72.4424 244.195 77.6026C244.16 78.1415 244.095 78.6775 244 79.2075L222.607 93.5791C222.543 93.585 222.482 93.5963 222.419 93.6023L221.588 94.219C221.53 94.0296 221.474 93.8317 221.416 93.6422C221.381 93.5324 221.352 93.4195 221.318 93.3097C221.297 93.2356 221.276 93.1612 221.253 93.0956C221.246 93.0709 221.239 93.0461 221.234 93.0268C221.211 92.9612 221.196 92.8975 221.176 92.8373C220.857 91.7321 220.545 90.6226 220.239 89.5086C220.236 89.5033 220.236 89.5033 220.238 89.4947C217.927 81.0004 216.24 72.2193 215.819 63.4359C215.806 63.1716 215.791 62.9021 215.788 62.6313C215.618 58.6709 215.743 54.7019 216.161 50.7639C216.396 48.6084 216.73 46.4674 217.162 44.3491C218.288 38.878 220.19 33.6357 222.797 28.8145C227.995 19.2042 235.931 11.5295 245.643 8.74255C245.891 8.67141 246.135 8.60331 246.386 8.5376Z" fill="#F0F0F0"/>
<path d="M246.504 8.86844C237.239 18.249 230.639 30.9457 228.196 44.5538C227.668 47.4958 227.365 50.5308 227.695 53.5224C228.036 56.4357 229.08 59.1953 230.719 61.5145C232.208 63.7107 233.962 65.7675 234.939 68.3235C235.97 71.0176 235.759 73.9296 234.655 76.5542C233.304 79.7654 230.985 82.2514 228.64 84.5959C226.037 87.1989 223.295 89.8573 221.959 93.5364C221.797 93.9822 221.178 93.6798 221.34 93.2347C223.664 86.8337 229.813 83.7186 233.116 78.0837C234.657 75.4543 235.486 72.2983 234.534 69.2445C233.701 66.5741 231.894 64.4513 230.369 62.242C228.768 59.9221 227.603 57.4406 227.147 54.5486C226.68 51.5903 226.876 48.5359 227.333 45.5919C228.416 38.9245 230.445 32.4859 233.346 26.5117C236.623 19.6733 240.939 13.5017 246.108 8.26398C246.428 7.93994 246.822 8.54652 246.504 8.86844V8.86844Z" fill="white"/>
<path d="M228.777 40.0847C226.743 39.3034 225.028 37.7521 223.937 35.708C222.847 33.6639 222.453 31.26 222.825 28.9256C222.902 28.4535 223.572 28.5626 223.495 29.0353C223.145 31.2084 223.513 33.4476 224.531 35.3488C225.55 37.25 227.153 38.6879 229.051 39.4031C229.463 39.559 229.187 40.2397 228.777 40.0847Z" fill="white"/>
<path d="M229.83 60.5106C233.815 58.4448 236.946 54.8032 238.598 50.3118C238.761 49.8667 239.381 50.1689 239.217 50.6135C237.49 55.2838 234.225 59.0662 230.074 61.2059C229.678 61.4095 229.436 60.7132 229.83 60.5106Z" fill="white"/>
<path d="M237.186 20.4436C237.916 20.9261 238.743 21.2017 239.594 21.2458C240.445 21.2898 241.292 21.1009 242.06 20.6959C242.453 20.487 242.695 21.1832 242.304 21.3908C241.454 21.8339 240.518 22.0413 239.578 21.9949C238.638 21.9486 237.722 21.6498 236.912 21.1249C236.831 21.0824 236.769 21.008 236.737 20.9167C236.705 20.8255 236.706 20.7242 236.739 20.6335C236.776 20.5435 236.843 20.4731 236.927 20.4375C237.011 20.402 237.104 20.4042 237.186 20.4436Z" fill="white"/>
<path d="M62.4888 157.587H225.456V53.8211C225.455 53.0437 225.174 52.2983 224.674 51.7485C224.174 51.1988 223.496 50.8895 222.789 50.8887H65.1552C64.4482 50.8895 63.7705 51.1988 63.2706 51.7485C62.7708 52.2983 62.4896 53.0437 62.4888 53.8211V157.587Z" fill="#CACACA"/>
<path d="M220.42 54.9445H67.5239V150.411H220.42V54.9445Z" fill="white"/>
<path d="M62.3467 154.78V167.585C62.3467 168.115 62.4417 168.641 62.6264 169.132C62.8111 169.622 63.0819 170.068 63.4232 170.443C63.7644 170.818 64.1696 171.116 64.6155 171.319C65.0615 171.522 65.5394 171.627 66.0221 171.627H126.172V196.898H125.373C125.311 196.898 125.249 196.911 125.191 196.938C125.133 196.964 125.08 197.003 125.036 197.051C124.991 197.1 124.956 197.158 124.932 197.222C124.908 197.286 124.896 197.354 124.896 197.423V199.18C124.896 199.249 124.908 199.318 124.932 199.381C124.956 199.445 124.991 199.503 125.036 199.552C125.08 199.601 125.133 199.639 125.191 199.666C125.249 199.692 125.311 199.706 125.373 199.706H162.714C162.776 199.706 162.839 199.692 162.897 199.666C162.954 199.639 163.007 199.601 163.051 199.552C163.096 199.503 163.131 199.445 163.155 199.381C163.179 199.318 163.191 199.249 163.191 199.18V197.423C163.191 197.354 163.179 197.286 163.155 197.222C163.131 197.158 163.096 197.1 163.051 197.051C163.007 197.003 162.954 196.964 162.897 196.938C162.839 196.911 162.777 196.898 162.714 196.898H161.915V171.627H222.065C222.548 171.627 223.026 171.522 223.472 171.319C223.917 171.116 224.323 170.818 224.664 170.443C225.005 170.068 225.276 169.622 225.461 169.132C225.645 168.641 225.74 168.115 225.74 167.585V154.78L62.3467 154.78Z" fill="#3F3D56"/>
<path d="M115.067 102.157H77.8075C77.5478 102.156 77.2989 102.043 77.1153 101.841C76.9317 101.639 76.8284 101.365 76.8281 101.08V84.4519C76.8284 84.1663 76.9317 83.8925 77.1153 83.6906C77.2989 83.4887 77.5478 83.3751 77.8075 83.3748H115.067C115.327 83.3751 115.576 83.4887 115.76 83.6906C115.943 83.8925 116.047 84.1663 116.047 84.4519V101.08C116.047 101.365 115.943 101.639 115.76 101.841C115.576 102.043 115.327 102.156 115.067 102.157Z" fill="#6C63FF"/>
<path d="M111.52 110.133H81.3554C81.0437 110.133 80.7448 109.997 80.5244 109.755C80.304 109.512 80.1802 109.183 80.1802 108.841C80.1802 108.498 80.304 108.169 80.5244 107.927C80.7448 107.684 81.0437 107.548 81.3554 107.548H111.52C113.035 107.525 113.05 110.157 111.52 110.133Z" fill="#E4E4E4"/>
<path d="M111.519 116.057H81.3545C81.0428 116.057 80.7438 115.921 80.5234 115.679C80.303 115.436 80.1792 115.108 80.1792 114.765C80.1792 114.422 80.303 114.093 80.5234 113.851C80.7438 113.608 81.0428 113.472 81.3545 113.472H111.519C113.035 113.449 113.05 116.081 111.519 116.057Z" fill="#E4E4E4"/>
<path d="M111.52 121.981H81.3554C81.0437 121.981 80.7448 121.845 80.5244 121.603C80.304 121.361 80.1802 121.032 80.1802 120.689C80.1802 120.346 80.304 120.017 80.5244 119.775C80.7448 119.533 81.0437 119.396 81.3554 119.396H111.52C113.035 119.373 113.05 122.005 111.52 121.981Z" fill="#E4E4E4"/>
<path d="M162.602 102.157H125.342C125.083 102.156 124.834 102.043 124.65 101.841C124.466 101.639 124.363 101.365 124.363 101.08V84.4519C124.363 84.1663 124.466 83.8925 124.65 83.6906C124.834 83.4887 125.083 83.3751 125.342 83.3748H162.602C162.862 83.3751 163.111 83.4887 163.294 83.6906C163.478 83.8925 163.581 84.1663 163.582 84.4519V101.08C163.581 101.365 163.478 101.639 163.294 101.841C163.111 102.043 162.862 102.156 162.602 102.157Z" fill="#6C63FF"/>
<path d="M159.054 110.133H128.89C128.578 110.133 128.279 109.997 128.059 109.755C127.839 109.512 127.715 109.183 127.715 108.841C127.715 108.498 127.839 108.169 128.059 107.927C128.279 107.684 128.578 107.548 128.89 107.548H159.054C160.57 107.525 160.585 110.157 159.054 110.133Z" fill="#E4E4E4"/>
<path d="M159.054 116.057H128.89C128.578 116.057 128.279 115.921 128.059 115.679C127.839 115.436 127.715 115.108 127.715 114.765C127.715 114.422 127.839 114.093 128.059 113.851C128.279 113.608 128.578 113.472 128.89 113.472H159.054C160.57 113.449 160.585 116.081 159.054 116.057Z" fill="#E4E4E4"/>
<path d="M159.054 121.981H128.89C128.578 121.981 128.279 121.845 128.059 121.603C127.839 121.361 127.715 121.032 127.715 120.689C127.715 120.346 127.839 120.017 128.059 119.775C128.279 119.533 128.578 119.396 128.89 119.396H159.054C160.57 119.373 160.585 122.005 159.054 121.981Z" fill="#E4E4E4"/>
<path d="M210.139 102.157H172.877C172.618 102.156 172.369 102.043 172.185 101.841C172.002 101.639 171.898 101.365 171.898 101.08V84.4519C171.898 84.1663 172.002 83.8925 172.185 83.6906C172.369 83.4887 172.618 83.3751 172.877 83.3748H210.139C210.398 83.3751 210.647 83.4887 210.831 83.6906C211.015 83.8925 211.118 84.1663 211.118 84.4519V101.08C211.118 101.365 211.015 101.639 210.831 101.841C210.647 102.043 210.398 102.156 210.139 102.157Z" fill="#6C63FF"/>
<path d="M206.589 110.133H176.425C176.114 110.133 175.815 109.997 175.594 109.755C175.374 109.512 175.25 109.183 175.25 108.841C175.25 108.498 175.374 108.169 175.594 107.927C175.815 107.684 176.114 107.548 176.425 107.548H206.589C208.105 107.525 208.12 110.157 206.589 110.133Z" fill="#E4E4E4"/>
<path d="M206.589 116.057H176.424C176.112 116.057 175.814 115.92 175.594 115.678C175.374 115.436 175.25 115.107 175.25 114.765C175.25 114.422 175.374 114.094 175.594 113.852C175.814 113.609 176.112 113.473 176.424 113.472H206.589C208.105 113.449 208.12 116.081 206.589 116.057Z" fill="#E4E4E4"/>
<path d="M206.589 121.981H176.425C176.114 121.981 175.815 121.845 175.594 121.603C175.374 121.361 175.25 121.032 175.25 120.689C175.25 120.346 175.374 120.017 175.594 119.775C175.815 119.533 176.114 119.396 176.425 119.396H206.589C208.105 119.373 208.12 122.005 206.589 121.981Z" fill="#E4E4E4"/>
<path d="M263.807 83.5994L263.908 104.441L264.324 104.415L264.718 112.131L263.947 112.178L263.969 116.813L264.586 116.8L264.711 124.523L264.008 124.537L264.343 192.546C264.35 194.327 263.715 196.038 262.576 197.304C261.438 198.57 259.889 199.288 258.27 199.299L189.963 199.706C188.344 199.714 186.788 199.016 185.636 197.763C184.485 196.511 183.833 194.807 183.823 193.026L183.286 84.0798C183.279 82.299 183.914 80.5878 185.053 79.3217C186.192 78.0557 187.741 77.3382 189.36 77.3267L257.666 76.9196C259.285 76.9123 260.841 77.6113 261.992 78.8635C263.143 80.1157 263.796 81.8188 263.807 83.5994Z" fill="#3F3D56"/>
<path d="M258.368 195.014L189.821 195.423C189.322 195.425 188.842 195.21 188.488 194.824C188.133 194.438 187.932 193.912 187.928 193.364L187.388 83.6933C187.386 83.1444 187.581 82.617 187.932 82.2267C188.283 81.8365 188.761 81.6153 189.26 81.6117L257.807 81.2029C258.306 81.2005 258.786 81.416 259.141 81.802C259.495 82.1881 259.697 82.7131 259.7 83.262L260.241 192.932C260.243 193.481 260.047 194.009 259.696 194.399C259.345 194.789 258.867 195.01 258.368 195.014Z" fill="white"/>
<path d="M223.264 79.752C223.55 79.752 223.782 79.4962 223.782 79.1806C223.782 78.8651 223.55 78.6093 223.264 78.6093C222.977 78.6093 222.745 78.8651 222.745 79.1806C222.745 79.4962 222.977 79.752 223.264 79.752Z" fill="white"/>
<path d="M243.651 112.072H203.978C203.701 112.071 203.436 111.95 203.241 111.735C203.045 111.52 202.935 111.229 202.935 110.925V93.2201C202.935 92.9161 203.045 92.6246 203.241 92.4096C203.436 92.1945 203.701 92.0736 203.978 92.0732H243.651C243.927 92.0736 244.192 92.1945 244.388 92.4095C244.583 92.6245 244.693 92.9161 244.694 93.2201V110.925C244.693 111.229 244.583 111.52 244.388 111.735C244.192 111.95 243.927 112.071 243.651 112.072Z" fill="#6C63FF"/>
<path d="M239.874 120.564H207.757C207.425 120.564 207.107 120.419 206.872 120.161C206.638 119.903 206.506 119.553 206.506 119.188C206.506 118.823 206.638 118.473 206.872 118.215C207.107 117.957 207.425 117.812 207.757 117.812H239.874C241.487 117.787 241.503 120.589 239.874 120.564Z" fill="#E4E4E4"/>
<path d="M239.873 126.872H207.755C207.424 126.872 207.106 126.726 206.872 126.468C206.637 126.21 206.506 125.861 206.506 125.496C206.506 125.131 206.637 124.782 206.872 124.524C207.106 124.266 207.424 124.12 207.755 124.12H239.873C241.487 124.095 241.503 126.897 239.873 126.872Z" fill="#E4E4E4"/>
<path d="M239.874 133.18H207.757C207.425 133.18 207.107 133.035 206.872 132.777C206.638 132.519 206.506 132.169 206.506 131.804C206.506 131.439 206.638 131.089 206.872 130.831C207.107 130.573 207.425 130.428 207.757 130.428H239.874C241.487 130.403 241.503 133.205 239.874 133.18Z" fill="#E4E4E4"/>
<path d="M243.651 163.444H203.978C203.701 163.443 203.436 163.322 203.241 163.107C203.045 162.892 202.935 162.601 202.935 162.297V144.592C202.935 144.288 203.045 143.997 203.241 143.782C203.436 143.567 203.701 143.446 203.978 143.445H243.651C243.927 143.446 244.192 143.567 244.388 143.782C244.583 143.997 244.693 144.288 244.694 144.592V162.297C244.693 162.601 244.583 162.892 244.388 163.107C244.192 163.322 243.927 163.443 243.651 163.444Z" fill="#6C63FF"/>
<path d="M239.874 171.937H207.757C207.425 171.937 207.107 171.792 206.872 171.534C206.638 171.275 206.506 170.925 206.506 170.56C206.506 170.195 206.638 169.845 206.872 169.587C207.107 169.329 207.425 169.184 207.757 169.184H239.874C241.487 169.159 241.503 171.962 239.874 171.937Z" fill="#E4E4E4"/>
<path d="M239.873 178.244H207.755C207.424 178.244 207.106 178.099 206.872 177.841C206.637 177.582 206.506 177.233 206.506 176.868C206.506 176.504 206.637 176.154 206.872 175.896C207.106 175.638 207.424 175.492 207.755 175.492H239.873C241.487 175.467 241.503 178.269 239.873 178.244Z" fill="#E4E4E4"/>
<path d="M239.874 184.552H207.757C207.425 184.552 207.107 184.407 206.872 184.149C206.638 183.891 206.506 183.541 206.506 183.176C206.506 182.811 206.638 182.461 206.872 182.203C207.107 181.945 207.425 181.8 207.757 181.8H239.874C241.487 181.775 241.503 184.577 239.874 184.552Z" fill="#E4E4E4"/>
<path d="M77.3784 194.354L77.2464 134.292L77.7442 134.291L77.7202 123.244L77.2223 123.245L77.1816 104.805C77.1801 104.116 77.0553 103.434 76.8142 102.798C76.5732 102.163 76.2207 101.586 75.7768 101.1C75.3329 100.614 74.8064 100.229 74.2273 99.9669C73.6481 99.7049 73.0277 99.5709 72.4015 99.5725L36.9146 99.6668C36.2884 99.6684 35.6685 99.8057 35.0905 100.071C34.5126 100.336 33.9877 100.724 33.5459 101.212C33.1042 101.7 32.7542 102.279 32.5159 102.916C32.2776 103.553 32.1558 104.235 32.1573 104.924L32.1855 117.782L31.3926 117.804L31.5677 125.527L32.2025 125.51L32.2062 127.214L31.5307 127.233L31.7059 134.956L32.2232 134.942L32.354 194.473C32.3543 195.162 32.4784 195.845 32.719 196.481C32.9596 197.117 33.3121 197.695 33.7562 198.181C34.2004 198.667 34.7274 199.052 35.307 199.314C35.8867 199.575 36.5076 199.709 37.1342 199.706L72.621 199.611C73.8853 199.606 75.0962 199.05 75.988 198.064C76.8799 197.079 77.3799 195.744 77.3784 194.354Z" fill="#3F3D56"/>
<path d="M36.0492 197.302C35.6066 197.127 35.2238 196.807 34.9526 196.384C34.6815 195.961 34.5352 195.457 34.5337 194.94L34.335 104.446C34.3336 103.779 34.5729 103.139 35.0004 102.667C35.4279 102.195 36.0084 101.928 36.6144 101.927L44.1648 101.907L44.0713 102.16C43.9091 102.6 43.8479 103.078 43.893 103.55C43.9381 104.023 44.0881 104.476 44.3299 104.869C44.5717 105.263 44.8978 105.585 45.2795 105.808C45.6612 106.03 46.0867 106.146 46.5186 106.144L63.2751 106.1C63.6922 106.06 64.0949 105.913 64.4506 105.67C64.8063 105.427 65.105 105.095 65.3225 104.702C65.5369 104.315 65.6652 103.878 65.6968 103.427C65.7284 102.975 65.6625 102.522 65.5044 102.103L65.4098 101.85L73.209 101.829C73.8148 101.829 74.3961 102.092 74.8255 102.562C75.2549 103.032 75.4973 103.67 75.4995 104.337L75.6893 190.676C75.6912 192.444 75.0555 194.14 73.9215 195.393C72.7876 196.647 71.248 197.354 69.6406 197.36L36.8242 197.447C36.5602 197.448 36.298 197.399 36.0492 197.302Z" fill="white"/>
<path d="M48.9764 104.051C49.2633 104.051 49.4959 103.796 49.4959 103.48C49.4959 103.165 49.2633 102.909 48.9764 102.909C48.6896 102.909 48.457 103.165 48.457 103.48C48.457 103.796 48.6896 104.051 48.9764 104.051Z" fill="white"/>
<path d="M69.0582 131.863H42.0973C41.9094 131.863 41.7293 131.781 41.5965 131.635C41.4636 131.489 41.3889 131.29 41.3887 131.084V119.052C41.3889 118.846 41.4636 118.647 41.5965 118.501C41.7293 118.355 41.9094 118.273 42.0973 118.273H69.0582C69.2461 118.273 69.4262 118.355 69.559 118.501C69.6919 118.647 69.7666 118.846 69.7668 119.052V131.084C69.7666 131.29 69.6919 131.489 69.559 131.635C69.4262 131.781 69.2461 131.863 69.0582 131.863Z" fill="#6C63FF"/>
<path d="M66.4911 137.634H44.6646C44.5528 137.634 44.442 137.61 44.3386 137.563C44.2353 137.516 44.1413 137.448 44.0622 137.361C43.983 137.274 43.9202 137.171 43.8774 137.057C43.8345 136.944 43.8125 136.822 43.8125 136.699C43.8125 136.576 43.8345 136.454 43.8774 136.341C43.9202 136.227 43.983 136.124 44.0622 136.037C44.1413 135.951 44.2353 135.882 44.3386 135.835C44.442 135.788 44.5528 135.764 44.6646 135.764H66.4911C67.5877 135.747 67.5987 137.651 66.4911 137.634Z" fill="#E4E4E4"/>
<path d="M66.4913 141.92H44.6648C44.4393 141.92 44.223 141.822 44.0635 141.647C43.904 141.471 43.8145 141.234 43.8145 140.986C43.8145 140.738 43.904 140.5 44.0635 140.325C44.223 140.149 44.4393 140.051 44.6648 140.051H66.4913C67.588 140.034 67.5989 141.937 66.4913 141.92Z" fill="#E4E4E4"/>
<path d="M66.4911 146.207H44.6646C44.5528 146.207 44.442 146.183 44.3386 146.136C44.2353 146.09 44.1413 146.021 44.0622 145.934C43.983 145.847 43.9202 145.744 43.8774 145.63C43.8345 145.517 43.8125 145.395 43.8125 145.272C43.8125 145.149 43.8345 145.028 43.8774 144.914C43.9202 144.801 43.983 144.697 44.0622 144.611C44.1413 144.524 44.2353 144.455 44.3386 144.408C44.442 144.361 44.5528 144.337 44.6646 144.338H66.4911C67.5877 144.321 67.5987 146.224 66.4911 146.207Z" fill="#E4E4E4"/>
<path d="M69.0582 167.918H42.0973C41.9094 167.917 41.7293 167.835 41.5965 167.689C41.4636 167.543 41.3889 167.345 41.3887 167.138V155.107C41.3889 154.9 41.4636 154.702 41.5965 154.556C41.7293 154.41 41.9094 154.328 42.0973 154.327H69.0582C69.2461 154.328 69.4262 154.41 69.559 154.556C69.6919 154.702 69.7666 154.9 69.7668 155.107V167.138C69.7666 167.345 69.6919 167.543 69.559 167.689C69.4262 167.835 69.2461 167.917 69.0582 167.918Z" fill="#6C63FF"/>
<path d="M66.4911 173.688H44.6646C44.5528 173.689 44.442 173.665 44.3386 173.618C44.2353 173.571 44.1413 173.502 44.0622 173.415C43.983 173.328 43.9202 173.225 43.8774 173.112C43.8345 172.998 43.8125 172.876 43.8125 172.754C43.8125 172.631 43.8345 172.509 43.8774 172.395C43.9202 172.282 43.983 172.179 44.0622 172.092C44.1413 172.005 44.2353 171.936 44.3386 171.889C44.442 171.842 44.5528 171.818 44.6646 171.819H66.4911C67.5877 171.802 67.5987 173.705 66.4911 173.688Z" fill="#E4E4E4"/>
<path d="M66.4913 177.975H44.6648C44.4393 177.975 44.223 177.877 44.0635 177.701C43.904 177.526 43.8145 177.288 43.8145 177.04C43.8145 176.792 43.904 176.555 44.0635 176.379C44.223 176.204 44.4393 176.105 44.6648 176.105H66.4913C67.588 176.089 67.5989 177.992 66.4913 177.975Z" fill="#E4E4E4"/>
<path d="M66.4911 182.262H44.6646C44.5528 182.262 44.442 182.238 44.3386 182.191C44.2353 182.144 44.1413 182.075 44.0622 181.988C43.983 181.902 43.9202 181.799 43.8774 181.685C43.8345 181.571 43.8125 181.45 43.8125 181.327C43.8125 181.204 43.8345 181.082 43.8774 180.969C43.9202 180.855 43.983 180.752 44.0622 180.665C44.1413 180.578 44.2353 180.509 44.3386 180.463C44.442 180.416 44.5528 180.392 44.6646 180.392H66.4911C67.5877 180.375 67.5987 182.279 66.4911 182.262Z" fill="#E4E4E4"/>
<path d="M8.78973 196.419L11.7194 196.418L13.113 183.991H8.78906L8.78973 196.419Z" fill="#A0616A"/>
<path d="M8.04248 195.367L8.86705 195.367L12.0863 193.927L13.8118 195.367H13.812C14.7871 195.367 15.7222 195.793 16.4117 196.551C17.1012 197.309 17.4886 198.338 17.4887 199.41V199.542L8.04264 199.542L8.04248 195.367Z" fill="#2F2E41"/>
<path d="M20.1421 194.388L22.9995 195.098L26.848 183.313L22.6305 182.266L20.1421 194.388Z" fill="#A0616A"/>
<path d="M19.6241 193.181L20.4284 193.381L23.857 192.756L25.2517 194.579L25.2519 194.579C26.203 194.815 27.0298 195.457 27.5505 196.364C28.0711 197.271 28.243 198.368 28.0283 199.414L28.002 199.542L18.7881 197.254L19.6241 193.181Z" fill="#2F2E41"/>
<path d="M5.07932 120.443C3.70582 124.999 3.85102 129.944 5.40947 135.252L6.07567 165.136C6.07567 165.136 5.08308 184.734 8.28599 191.63H12.9311L15.231 163.347L15.5198 144.363L25.4784 160.379L19.1355 191.167L24.8525 191.729L35.1454 158.317L22.446 125.9L5.07932 120.443Z" fill="#2F2E41"/>
<path d="M23.2744 126.857L6.38365 123.886C5.94066 123.73 5.53361 123.47 5.19046 123.125C4.84731 122.779 4.57618 122.357 4.39568 121.885C4.21518 121.413 4.12959 120.905 4.14479 120.393C4.15998 119.882 4.2756 119.38 4.4837 118.923L5.24968 117.238L4.95214 99.5339C4.91628 97.2311 5.43247 94.9585 6.44879 92.9447C7.46511 90.931 8.94571 89.2471 10.7416 88.0625L12.3888 86.9793L13.2212 84.6544L20.8969 84.8603L20.9193 87.9095L23.6682 92.7304L23.6681 92.7504L23.4956 118.99L22.738 121.698L23.8835 124.847L23.2744 126.857Z" fill="#3F3D56"/>
<path d="M17.7618 81.7635C21.6135 81.7635 24.7359 78.3293 24.7359 74.0931C24.7359 69.8569 21.6135 66.4227 17.7618 66.4227C13.91 66.4227 10.7876 69.8569 10.7876 74.0931C10.7876 78.3293 13.91 81.7635 17.7618 81.7635Z" fill="#FFB6B6"/>
<path d="M10.4998 75.7652C10.2918 74.8014 10.3873 73.4452 10.5048 72.4748C10.6554 71.1951 11.0487 69.9646 11.6593 68.8628C12.27 67.7611 13.0842 66.8127 14.0494 66.0792C14.4195 65.7701 14.8592 65.5779 15.3213 65.5233C15.5522 65.5019 15.7834 65.5614 15.9817 65.6934C16.18 65.8253 16.3353 66.0228 16.4252 66.2577C16.5416 65.9384 16.7161 65.6487 16.9382 65.4066C17.1603 65.1644 17.4251 64.9748 17.7164 64.8495C18.3015 64.603 18.9308 64.5098 19.5543 64.5772C20.763 64.6868 21.9221 65.1542 22.9087 65.9299C23.8953 66.7055 24.6726 67.7605 25.158 68.9828C25.3443 69.4695 25.8646 67.6717 26.1006 68.1316C26.3175 68.6096 26.6959 68.9752 27.1548 69.1503C27.6173 69.2922 27.8051 71.3878 27.9871 70.8992C28.1283 71.2603 28.1842 71.6548 28.1494 72.0461C28.1146 72.4373 27.9904 72.8125 27.7883 73.1368C27.5861 73.461 27.3127 73.7237 26.9934 73.9004C26.6741 74.077 26.3194 74.162 25.9622 74.1473C25.4953 74.0809 25.0325 73.9835 24.5763 73.8556C23.7387 73.7395 22.8914 73.9647 22.1944 74.4887C21.4974 75.0127 20.999 75.7992 20.7932 76.6997C20.6659 76.1761 20.4626 75.6784 20.191 75.2261C20.0531 75.0011 19.8684 74.8156 19.6522 74.6849C19.436 74.5543 19.1946 74.4823 18.948 74.4749C18.7123 74.5047 18.4846 74.5871 18.2789 74.7172C18.0732 74.8472 17.8938 75.0221 17.7518 75.2312C17.4448 75.6277 17.2142 76.0903 16.9049 76.4846C15.9973 77.6418 14.7699 80.3403 13.4765 80.1435C12.4558 79.9882 10.7838 77.0812 10.4998 75.7652Z" fill="#2F2E41"/>
<path d="M43.761 121.258C43.4642 121.4 43.1427 121.469 42.8192 121.459C42.4957 121.45 42.178 121.362 41.8886 121.203C41.5992 121.044 41.345 120.816 41.144 120.538C40.943 120.259 40.8001 119.935 40.7252 119.588L32.8984 118.719L35.4806 115.233L42.5172 116.593C43.0544 116.494 43.6063 116.614 44.0682 116.932C44.53 117.25 44.8698 117.743 45.0231 118.318C45.1764 118.893 45.1327 119.51 44.9 120.052C44.6674 120.594 44.2622 121.023 43.761 121.258Z" fill="#A0616A"/>
<path d="M38.9466 119.876L20.6814 118.025L20.6564 117.993L7.326 101.194C6.44872 99.7159 6.11841 97.9247 6.40271 96.1874C6.687 94.4501 7.5644 92.898 8.85524 91.8489C9.56947 91.27 10.3871 90.8639 11.2543 90.6575C12.1215 90.4512 13.0186 90.4491 13.8866 90.6515C14.7545 90.854 15.5737 91.2563 16.2901 91.832C17.0065 92.4077 17.6039 93.1438 18.043 93.9917L26.2535 109.848L39.1478 115.546L38.9466 119.876Z" fill="#3F3D56"/>
<path d="M281.651 200.001H0.347782C0.255451 200 0.166993 199.947 0.1018 199.854C0.0366072 199.76 0 199.633 0 199.5C0 199.368 0.0366072 199.241 0.1018 199.147C0.166993 199.053 0.255451 199 0.347782 199H281.651C281.744 199 281.832 199.053 281.898 199.147C281.963 199.24 282 199.368 282 199.5C282 199.633 281.963 199.76 281.898 199.854C281.832 199.948 281.744 200.001 281.651 200.001Z" fill="#CCCCCC"/>
</g>
<defs>
<clipPath id="clip0_163_2153">
<rect width="282" height="200" fill="white"/>
</clipPath>
</defs>
</svg>
